<svg version="1.1" viewBox="0.0 0.0 960.0 540.0" fill="none" stroke="none" stroke-linecap="square" stroke-miterlimit="10" xmlns:xlink="http://www.w3.org/1999/xlink" xmlns="http://www.w3.org/2000/svg"><clipPath id="g1405300bfad_2_93.0"><path d="m0 0l960.0 0l0 540.0l-960.0 0l0 -540.0z" clip-rule="nonzero"/></clipPath><g clip-path="url(#g1405300bfad_2_93.0)"><path fill="#ffffff" d="m0 0l960.0 0l0 540.0l-960.0 0z" fill-rule="evenodd"/><path fill="#424242" fill-opacity="0.1255" d="m118.24117 115.07063l0 0c-8.281746 0.01725769 -16.230202 -3.260559 -22.092392 -9.11055c-5.8621826 -5.849983 -9.156555 -13.791595 -9.156555 -22.073357l31.183975 0z" fill-rule="evenodd"/><path fill="#424242" fill-opacity="0.1255" d="m118.2848 136.3451l0 0c-13.93145 0.029022217 -27.302246 -5.4848785 -37.163544 -15.325661c-9.861305 -9.840775 -15.403053 -23.200058 -15.403053 -37.13154l52.457314 0z" fill-rule="evenodd"/><path fill="#ff9900" d="m228.95013 97.4385l0 0c0 -4.963417 4.023636 -8.987053 8.987061 -8.987053l127.25421 0c2.383545 0 4.6694336 0.946846 6.354828 2.632248c1.6853943 1.6853943 2.6322327 3.9712906 2.6322327 6.354805l0 35.94715c0 4.9634094 -4.0236206 8.987045 -8.987061 8.987045l-127.25421 0c-4.9634247 0 -8.987061 -4.023636 -8.987061 -8.987045z" fill-rule="evenodd"/><path stroke="#424242" stroke-width="1.0" stroke-linejoin="round" stroke-linecap="butt" d="m228.95013 97.4385l0 0c0 -4.963417 4.023636 -8.987053 8.987061 -8.987053l127.25421 0c2.383545 0 4.6694336 0.946846 6.354828 2.632248c1.6853943 1.6853943 2.6322327 3.9712906 2.6322327 6.354805l0 35.94715c0 4.9634094 -4.0236206 8.987045 -8.987061 8.987045l-127.25421 0c-4.9634247 0 -8.987061 -4.023636 -8.987061 -8.987045z" fill-rule="evenodd"/><path fill="#000000" d="m273.24292 122.33207l0 -13.359375l1.640625 0l0 7.625l3.890625 -3.9375l2.109375 0l-3.6875 3.59375l4.0625 6.078125l-2.015625 0l-3.203125 -4.953125l-1.15625 1.125l0 3.828125l-1.640625 0zm15.65625 0l0 -1.421875q-1.125 1.640625 -3.0625 1.640625q-0.859375 0 -1.609375 -0.328125q-0.734375 -0.328125 -1.09375 -0.828125q-0.359375 -0.5 -0.5 -1.21875q-0.109375 -0.46875 -0.109375 -1.53125l0 -5.984375l1.640625 0l0 5.359375q0 1.28125 0.109375 1.734375q0.15625 0.640625 0.65625 1.015625q0.5 0.375 1.234375 0.375q0.734375 0 1.375 -0.375q0.65625 -0.390625 0.921875 -1.03125q0.265625 -0.65625 0.265625 -1.890625l0 -5.1875l1.640625 0l0 9.671875l-1.46875 0zm5.547577 0l-1.515625 0l0 -13.359375l1.640625 0l0 4.765625q1.046875 -1.296875 2.65625 -1.296875q0.890625 0 1.6875 0.359375q0.796875 0.359375 1.3125 1.015625q0.515625 0.640625 0.796875 1.5625q0.296875 0.921875 0.296875 1.96875q0 2.484375 -1.234375 3.84375q-1.21875 1.359375 -2.953125 1.359375q-1.703125 0 -2.6875 -1.4375l0 1.21875zm-0.015625 -4.90625q0 1.734375 0.484375 2.515625q0.765625 1.265625 2.09375 1.265625q1.078125 0 1.859375 -0.9375q0.78125 -0.9375 0.78125 -2.78125q0 -1.890625 -0.75 -2.796875q-0.75 -0.90625 -1.828125 -0.90625q-1.0625 0 -1.859375 0.9375q-0.78125 0.9375 -0.78125 2.703125zm15.516357 1.796875l1.6875 0.203125q-0.40625 1.484375 -1.484375 2.3125q-1.078125 0.8125 -2.765625 0.8125q-2.125 0 -3.375 -1.296875q-1.234375 -1.3125 -1.234375 -3.671875q0 -2.453125 1.25 -3.796875q1.265625 -1.34375 3.265625 -1.34375q1.9375 0 3.15625 1.328125q1.234375 1.3125 1.234375 3.703125q0 0.15625 0 0.4375l-7.21875 0q0.09375 1.59375 0.90625 2.453125q0.8125 0.84375 2.015625 0.84375q0.90625 0 1.546875 -0.46875q0.640625 -0.484375 1.015625 -1.515625zm-5.390625 -2.65625l5.40625 0q-0.109375 -1.21875 -0.625 -1.828125q-0.78125 -0.953125 -2.03125 -0.953125q-1.125 0 -1.90625 0.765625q-0.765625 0.75 -0.84375 2.015625zm15.453827 2.21875l1.609375 0.21875q-0.265625 1.65625 -1.359375 2.609375q-1.078125 0.9375 -2.671875 0.9375q-1.984375 0 -3.1875 -1.296875q-1.203125 -1.296875 -1.203125 -3.71875q0 -1.578125 0.515625 -2.75q0.515625 -1.171875 1.578125 -1.75q1.0625 -0.59375 2.3125 -0.59375q1.578125 0 2.578125 0.796875q1.0 0.796875 1.28125 2.265625l-1.59375 0.234375q-0.234375 -0.96875 -0.8125 -1.453125q-0.578125 -0.5 -1.390625 -0.5q-1.234375 0 -2.015625 0.890625q-0.78125 0.890625 -0.78125 2.8125q0 1.953125 0.75 2.84375q0.75 0.875 1.953125 0.875q0.96875 0 1.609375 -0.59375q0.65625 -0.59375 0.828125 -1.828125zm6.59375 2.078125l0.234375 1.453125q-0.6875 0.140625 -1.234375 0.140625q-0.890625 0 -1.390625 -0.28125q-0.484375 -0.28125 -0.6875 -0.734375q-0.203125 -0.46875 -0.203125 -1.9375l0 -5.578125l-1.203125 0l0 -1.265625l1.203125 0l0 -2.390625l1.625 -0.984375l0 3.375l1.65625 0l0 1.265625l-1.65625 0l0 5.671875q0 0.6875 0.078125 0.890625q0.09375 0.203125 0.28125 0.328125q0.203125 0.109375 0.578125 0.109375q0.265625 0 0.71875 -0.0625zm1.5583191 1.46875l0 -13.359375l1.640625 0l0 13.359375l-1.640625 0z" fill-rule="nonzero"/><path fill="#cccccc" d="m723.92914 93.336136l0 0c0 -4.9634094 4.0236206 -8.987053 8.987061 -8.987053l127.25421 0c2.383545 0 4.6694336 0.946846 6.3547974 2.632248c1.6854248 1.6854019 2.6322632 3.9712906 2.6322632 6.354805l0 35.947144c0 4.9634247 -4.0236206 8.987061 -8.987061 8.987061l-127.25421 0c-4.96344 0 -8.987061 -4.023636 -8.987061 -8.987061z" fill-rule="evenodd"/><path stroke="#424242" stroke-width="1.0" stroke-linejoin="round" stroke-linecap="butt" d="m723.92914 93.336136l0 0c0 -4.9634094 4.0236206 -8.987053 8.987061 -8.987053l127.25421 0c2.383545 0 4.6694336 0.946846 6.3547974 2.632248c1.6854248 1.6854019 2.6322632 3.9712906 2.6322632 6.354805l0 35.947144c0 4.9634247 -4.0236206 8.987061 -8.987061 8.987061l-127.25421 0c-4.96344 0 -8.987061 -4.023636 -8.987061 -8.987061z" fill-rule="evenodd"/><path fill="#000000" d="m765.7255 114.68283l1.609375 0.21875q-0.265625 1.65625 -1.359375 2.609375q-1.078125 0.9375 -2.671875 0.9375q-1.984375 0 -3.1875 -1.296875q-1.203125 -1.296875 -1.203125 -3.71875q0 -1.578125 0.515625 -2.75q0.515625 -1.171875 1.578125 -1.75q1.0625 -0.59375 2.3125 -0.59375q1.578125 0 2.578125 0.796875q1.0 0.796875 1.28125 2.265625l-1.59375 0.234375q-0.234375 -0.96875 -0.8125 -1.453125q-0.578125 -0.5 -1.390625 -0.5q-1.234375 0 -2.015625 0.890625q-0.78125 0.890625 -0.78125 2.8125q0 1.953125 0.75 2.84375q0.75 0.875 1.953125 0.875q0.96875 0 1.609375 -0.59375q0.65625 -0.59375 0.828125 -1.828125zm2.40625 -1.296875q0 -2.6875 1.484375 -3.96875q1.25 -1.078125 3.046875 -1.078125q2.0 0 3.265625 1.3125q1.265625 1.296875 1.265625 3.609375q0 1.859375 -0.5625 2.9375q-0.5625 1.0625 -1.640625 1.65625q-1.0625 0.59375 -2.328125 0.59375q-2.03125 0 -3.28125 -1.296875q-1.25 -1.3125 -1.25 -3.765625zm1.6875 0q0 1.859375 0.796875 2.796875q0.8125 0.921875 2.046875 0.921875q1.21875 0 2.03125 -0.921875q0.8125 -0.9375 0.8125 -2.84375q0 -1.796875 -0.8125 -2.71875q-0.8125 -0.921875 -2.03125 -0.921875q-1.234375 0 -2.046875 0.921875q-0.796875 0.90625 -0.796875 2.765625zm9.297607 4.84375l0 -9.671875l1.46875 0l0 1.375q1.0625 -1.59375 3.078125 -1.59375q0.875 0 1.609375 0.3125q0.734375 0.3125 1.09375 0.828125q0.375 0.5 0.515625 1.203125q0.09375 0.453125 0.09375 1.59375l0 5.953125l-1.640625 0l0 -5.890625q0 -1.0 -0.203125 -1.484375q-0.1875 -0.5 -0.671875 -0.796875q-0.484375 -0.296875 -1.140625 -0.296875q-1.046875 0 -1.8125 0.671875q-0.75 0.65625 -0.75 2.515625l0 5.28125l-1.640625 0zm13.953857 -1.46875l0.234375 1.453125q-0.6875 0.140625 -1.234375 0.140625q-0.890625 0 -1.390625 -0.28125q-0.484375 -0.28125 -0.6875 -0.734375q-0.203125 -0.46875 -0.203125 -1.9375l0 -5.578125l-1.203125 0l0 -1.265625l1.203125 0l0 -2.390625l1.625 -0.984375l0 3.375l1.65625 0l0 1.265625l-1.65625 0l0 5.671875q0 0.6875 0.078125 0.890625q0.09375 0.203125 0.28125 0.328125q0.203125 0.109375 0.578125 0.109375q0.265625 0 0.71875 -0.0625zm1.5895386 1.46875l0 -9.671875l1.46875 0l0 1.46875q0.5625 -1.03125 1.03125 -1.359375q0.484375 -0.328125 1.0625 -0.328125q0.828125 0 1.6875 0.53125l-0.5625 1.515625q-0.609375 -0.359375 -1.203125 -0.359375q-0.546875 0 -0.96875 0.328125q-0.421875 0.328125 -0.609375 0.890625q-0.28125 0.875 -0.28125 1.921875l0 5.0625l-1.625 0zm5.6188965 -4.84375q0 -2.6875 1.484375 -3.96875q1.25 -1.078125 3.046875 -1.078125q2.0 0 3.265625 1.3125q1.265625 1.296875 1.265625 3.609375q0 1.859375 -0.5625 2.9375q-0.5625 1.0625 -1.640625 1.65625q-1.0625 0.59375 -2.328125 0.59375q-2.03125 0 -3.28125 -1.296875q-1.25 -1.3125 -1.25 -3.765625zm1.6875 0q0 1.859375 0.796875 2.796875q0.8125 0.921875 2.046875 0.921875q1.21875 0 2.03125 -0.921875q0.8125 -0.9375 0.8125 -2.84375q0 -1.796875 -0.8125 -2.71875q-0.8125 -0.921875 -2.03125 -0.921875q-1.234375 0 -2.046875 0.921875q-0.796875 0.90625 -0.796875 2.765625zm9.250732 4.84375l0 -13.359375l1.640625 0l0 13.359375l-1.640625 0zm4.1448364 0l0 -13.359375l1.640625 0l0 13.359375l-1.640625 0zm10.816711 -3.109375l1.6875 0.203125q-0.40625 1.484375 -1.484375 2.3125q-1.078125 0.8125 -2.765625 0.8125q-2.125 0 -3.375 -1.296875q-1.234375 -1.3125 -1.234375 -3.671875q0 -2.453125 1.25 -3.796875q1.265625 -1.34375 3.265625 -1.34375q1.9375 0 3.15625 1.328125q1.234375 1.3125 1.234375 3.703125q0 0.15625 0 0.4375l-7.21875 0q0.09375 1.59375 0.90625 2.453125q0.8125 0.84375 2.015625 0.84375q0.90625 0 1.546875 -0.46875q0.640625 -0.484375 1.015625 -1.515625zm-5.390625 -2.65625l5.40625 0q-0.109375 -1.21875 -0.625 -1.828125q-0.78125 -0.953125 -2.03125 -0.953125q-1.125 0 -1.90625 0.765625q-0.765625 0.75 -0.84375 2.015625zm9.125671 5.765625l0 -9.671875l1.46875 0l0 1.46875q0.5625 -1.03125 1.03125 -1.359375q0.484375 -0.328125 1.0625 -0.328125q0.828125 0 1.6875 0.53125l-0.5625 1.515625q-0.609375 -0.359375 -1.203125 -0.359375q-0.546875 0 -0.96875 0.328125q-0.421875 0.328125 -0.609375 0.890625q-0.28125 0.875 -0.28125 1.921875l0 5.0625l-1.625 0z" fill-rule="nonzero"/><path fill="#cfe2f3" d="m137.39108 390.64316l0 0c0 -3.4761047 2.8179474 -6.2940674 6.2940826 -6.2940674l75.88426 0c1.6692963 0 3.270218 0.66311646 4.450592 1.8434753c1.1803741 1.1803894 1.8434906 2.781311 1.8434906 4.450592l0 25.175629c0 3.4761047 -2.8179474 6.2940674 -6.2940826 6.2940674l-75.88426 0c-3.4761353 0 -6.2940826 -2.8179626 -6.2940826 -6.2940674z" fill-rule="evenodd"/><path stroke="#424242" stroke-width="1.0" stroke-linejoin="round" stroke-linecap="butt" d="m137.39108 390.64316l0 0c0 -3.4761047 2.8179474 -6.2940674 6.2940826 -6.2940674l75.88426 0c1.6692963 0 3.270218 0.66311646 4.450592 1.8434753c1.1803741 1.1803894 1.8434906 2.781311 1.8434906 4.450592l0 25.175629c0 3.4761047 -2.8179474 6.2940674 -6.2940826 6.2940674l-75.88426 0c-3.4761353 0 -6.2940826 -2.8179626 -6.2940826 -6.2940674z" fill-rule="evenodd"/><path fill="#000000" d="m157.66753 410.15097l0 -13.359375l5.046875 0q1.328125 0 2.03125 0.125q0.96875 0.171875 1.640625 0.640625q0.671875 0.453125 1.078125 1.28125q0.40625 0.828125 0.40625 1.828125q0 1.703125 -1.09375 2.890625q-1.078125 1.171875 -3.921875 1.171875l-3.421875 0l0 5.421875l-1.765625 0zm1.765625 -7.0l3.453125 0q1.71875 0 2.4375 -0.640625q0.71875 -0.640625 0.71875 -1.796875q0 -0.84375 -0.421875 -1.4375q-0.421875 -0.59375 -1.125 -0.78125q-0.4375 -0.125 -1.640625 -0.125l-3.421875 0l0 4.78125zm10.146698 0.5q0 -3.328125 1.78125 -5.203125q1.78125 -1.890625 4.609375 -1.890625q1.84375 0 3.328125 0.890625q1.484375 0.875 2.265625 2.46875q0.78125 1.578125 0.78125 3.578125q0 2.03125 -0.828125 3.640625q-0.8125 1.59375 -2.3125 2.421875q-1.5 0.828125 -3.25 0.828125q-1.875 0 -3.359375 -0.90625q-1.484375 -0.921875 -2.25 -2.5q-0.765625 -1.578125 -0.765625 -3.328125zm1.8125 0.015625q0 2.421875 1.296875 3.8125q1.296875 1.390625 3.265625 1.390625q2.0 0 3.28125 -1.40625q1.28125 -1.40625 1.28125 -3.984375q0 -1.625 -0.546875 -2.84375q-0.546875 -1.21875 -1.609375 -1.875q-1.0625 -0.671875 -2.375 -0.671875q-1.890625 0 -3.25 1.296875q-1.34375 1.28125 -1.34375 4.28125zm12.636429 2.1875l1.65625 -0.140625q0.125 1.0 0.546875 1.640625q0.4375 0.640625 1.34375 1.046875q0.921875 0.390625 2.0625 0.390625q1.0 0 1.78125 -0.296875q0.78125 -0.296875 1.15625 -0.8125q0.375 -0.53125 0.375 -1.15625q0 -0.625 -0.375 -1.09375q-0.359375 -0.46875 -1.1875 -0.796875q-0.546875 -0.203125 -2.390625 -0.640625q-1.828125 -0.453125 -2.5625 -0.84375q-0.96875 -0.5 -1.4375 -1.234375q-0.46875 -0.75 -0.46875 -1.671875q0 -1.0 0.578125 -1.875q0.578125 -0.890625 1.671875 -1.34375q1.109375 -0.453125 2.453125 -0.453125q1.484375 0 2.609375 0.484375q1.140625 0.46875 1.75 1.40625q0.609375 0.921875 0.65625 2.09375l-1.6875 0.125q-0.140625 -1.265625 -0.9375 -1.90625q-0.78125 -0.65625 -2.3125 -0.65625q-1.609375 0 -2.34375 0.59375q-0.734375 0.59375 -0.734375 1.421875q0 0.71875 0.53125 1.171875q0.5 0.46875 2.65625 0.96875q2.15625 0.484375 2.953125 0.84375q1.171875 0.53125 1.71875 1.359375q0.5625 0.828125 0.5625 1.90625q0 1.0625 -0.609375 2.015625q-0.609375 0.9375 -1.75 1.46875q-1.140625 0.515625 -2.578125 0.515625q-1.8125 0 -3.046875 -0.53125q-1.21875 -0.53125 -1.921875 -1.59375q-0.6875 -1.0625 -0.71875 -2.40625zm16.443573 4.296875l0 -11.78125l-4.40625 0l0 -1.578125l10.578125 0l0 1.578125l-4.40625 0l0 11.78125l-1.765625 0z" fill-rule="nonzero"/><path fill="#cfe2f3" d="m257.3288 390.64316l0 0c0 -3.4761047 2.8179626 -6.2940674 6.294098 -6.2940674l75.88425 0c1.6693115 0 3.2702332 0.66311646 4.450592 1.8434753c1.1803894 1.1803894 1.8435059 2.781311 1.8435059 4.450592l0 25.175629c0 3.4761047 -2.8179626 6.2940674 -6.294098 6.2940674l-75.88425 0c-3.4761353 0 -6.294098 -2.8179626 -6.294098 -6.2940674z" fill-rule="evenodd"/><path stroke="#424242" stroke-width="1.0" stroke-linejoin="round" stroke-linecap="butt" d="m257.3288 390.64316l0 0c0 -3.4761047 2.8179626 -6.2940674 6.294098 -6.2940674l75.88425 0c1.6693115 0 3.2702332 0.66311646 4.450592 1.8434753c1.1803894 1.1803894 1.8435059 2.781311 1.8435059 4.450592l0 25.175629c0 3.4761047 -2.8179626 6.2940674 -6.294098 6.2940674l-75.88425 0c-3.4761353 0 -6.294098 -2.8179626 -6.294098 -6.2940674z" fill-rule="evenodd"/><path fill="#000000" d="m284.34628 410.15097l0 -13.359375l5.046875 0q1.328125 0 2.03125 0.125q0.96875 0.171875 1.640625 0.640625q0.671875 0.453125 1.078125 1.28125q0.40625 0.828125 0.40625 1.828125q0 1.703125 -1.09375 2.890625q-1.078125 1.171875 -3.921875 1.171875l-3.421875 0l0 5.421875l-1.765625 0zm1.765625 -7.0l3.453125 0q1.71875 0 2.4375 -0.640625q0.71875 -0.640625 0.71875 -1.796875q0 -0.84375 -0.421875 -1.4375q-0.421875 -0.59375 -1.125 -0.78125q-0.4375 -0.125 -1.640625 -0.125l-3.421875 0l0 4.78125zm19.443573 -6.359375l1.765625 0l0 7.71875q0 2.015625 -0.453125 3.203125q-0.453125 1.1875 -1.640625 1.9375q-1.1875 0.734375 -3.125 0.734375q-1.875 0 -3.078125 -0.640625q-1.1875 -0.65625 -1.703125 -1.875q-0.5 -1.234375 -0.5 -3.359375l0 -7.71875l1.765625 0l0 7.71875q0 1.734375 0.3125 2.5625q0.328125 0.8125 1.109375 1.265625q0.796875 0.453125 1.9375 0.453125q1.953125 0 2.78125 -0.890625q0.828125 -0.890625 0.828125 -3.390625l0 -7.71875zm8.113556 13.359375l0 -11.78125l-4.40625 0l0 -1.578125l10.578125 0l0 1.578125l-4.40625 0l0 11.78125l-1.765625 0z" fill-rule="nonzero"/><path fill="#cfe2f3" d="m377.2639 390.64316l0 0c0 -3.4761047 2.8179626 -6.2940674 6.294098 -6.2940674l75.88428 0c1.669281 0 3.2702026 0.66311646 4.450592 1.8434753c1.1803589 1.1803894 1.8434753 2.781311 1.8434753 4.450592l0 25.175629c0 3.4761047 -2.8179626 6.2940674 -6.2940674 6.2940674l-75.88428 0c-3.4761353 0 -6.294098 -2.8179626 -6.294098 -6.2940674z" fill-rule="evenodd"/><path stroke="#424242" stroke-width="1.0" stroke-linejoin="round" stroke-linecap="butt" d="m377.2639 390.64316l0 0c0 -3.4761047 2.8179626 -6.2940674 6.294098 -6.2940674l75.88428 0c1.669281 0 3.2702026 0.66311646 4.450592 1.8434753c1.1803589 1.1803894 1.8434753 2.781311 1.8434753 4.450592l0 25.175629c0 3.4761047 -2.8179626 6.2940674 -6.2940674 6.2940674l-75.88428 0c-3.4761353 0 -6.294098 -2.8179626 -6.294098 -6.2940674z" fill-rule="evenodd"/><path fill="#000000" d="m392.70853 410.15097l0 -13.359375l5.046875 0q1.328125 0 2.03125 0.125q0.96875 0.171875 1.640625 0.640625q0.671875 0.453125 1.078125 1.28125q0.40625 0.828125 0.40625 1.828125q0 1.703125 -1.09375 2.890625q-1.078125 1.171875 -3.921875 1.171875l-3.421875 0l0 5.421875l-1.765625 0zm1.765625 -7.0l3.453125 0q1.71875 0 2.4375 -0.640625q0.71875 -0.640625 0.71875 -1.796875q0 -0.84375 -0.421875 -1.4375q-0.421875 -0.59375 -1.125 -0.78125q-0.4375 -0.125 -1.640625 -0.125l-3.421875 0l0 4.78125zm7.8237915 7.0l5.125 -13.359375l1.90625 0l5.46875 13.359375l-2.015625 0l-1.546875 -4.046875l-5.59375 0l-1.46875 4.046875l-1.875 0zm3.859375 -5.484375l4.53125 0l-1.40625 -3.703125q-0.625 -1.6875 -0.9375 -2.765625q-0.265625 1.28125 -0.71875 2.546875l-1.46875 3.921875zm12.073761 5.484375l0 -11.78125l-4.40625 0l0 -1.578125l10.578125 0l0 1.578125l-4.40625 0l0 11.78125l-1.765625 0zm17.520996 -4.6875l1.765625 0.453125q-0.5625 2.171875 -2.0 3.328125q-1.4375 1.140625 -3.53125 1.140625q-2.15625 0 -3.515625 -0.875q-1.34375 -0.890625 -2.0625 -2.546875q-0.703125 -1.671875 -0.703125 -3.59375q0 -2.078125 0.796875 -3.625q0.796875 -1.5625 2.265625 -2.359375q1.484375 -0.8125 3.25 -0.8125q2.0 0 3.359375 1.015625q1.375 1.015625 1.90625 2.875l-1.734375 0.40625q-0.46875 -1.453125 -1.359375 -2.109375q-0.875 -0.671875 -2.203125 -0.671875q-1.546875 0 -2.578125 0.734375q-1.03125 0.734375 -1.453125 1.984375q-0.421875 1.234375 -0.421875 2.5625q0 1.703125 0.5 2.96875q0.5 1.265625 1.546875 1.90625q1.046875 0.625 2.265625 0.625q1.484375 0 2.515625 -0.859375q1.03125 -0.859375 1.390625 -2.546875zm4.004181 4.6875l0 -13.359375l1.765625 0l0 5.484375l6.9375 0l0 -5.484375l1.765625 0l0 13.359375l-1.765625 0l0 -6.296875l-6.9375 0l0 6.296875l-1.765625 0z" fill-rule="nonzero"/><path fill="#cfe2f3" d="m620.27704 390.64316l0 0c0 -3.4761047 2.8179321 -6.2940674 6.2940674 -6.2940674l75.88428 0c1.6693115 0 3.2702026 0.66311646 4.4505615 1.8434753c1.1804199 1.1803894 1.8435059 2.781311 1.8435059 4.450592l0 25.175629c0 3.4761047 -2.8179321 6.2940674 -6.2940674 6.2940674l-75.88428 0c-3.4761353 0 -6.2940674 -2.8179626 -6.2940674 -6.2940674z" fill-rule="evenodd"/><path stroke="#424242" stroke-width="1.0" stroke-linejoin="round" stroke-linecap="butt" d="m620.27704 390.64316l0 0c0 -3.4761047 2.8179321 -6.2940674 6.2940674 -6.2940674l75.88428 0c1.6693115 0 3.2702026 0.66311646 4.4505615 1.8434753c1.1804199 1.1803894 1.8435059 2.781311 1.8435059 4.450592l0 25.175629c0 3.4761047 -2.8179321 6.2940674 -6.2940674 6.2940674l-75.88428 0c-3.4761353 0 -6.2940674 -2.8179626 -6.2940674 -6.2940674z" fill-rule="evenodd"/><path fill="#000000" d="m634.6265 409.09097l0 -11.453125l3.953125 0q1.328125 0 2.03125 0.15625q0.984375 0.234375 1.6875 0.828125q0.90625 0.765625 1.34375 1.953125q0.453125 1.1875 0.453125 2.71875q0 1.3125 -0.3125 2.328125q-0.296875 1.0 -0.78125 1.65625q-0.46875 0.65625 -1.03125 1.046875q-0.5625 0.375 -1.375 0.578125q-0.796875 0.1875 -1.828125 0.1875l-4.140625 0zm1.515625 -1.359375l2.453125 0q1.125 0 1.765625 -0.203125q0.65625 -0.21875 1.03125 -0.59375q0.546875 -0.546875 0.84375 -1.453125q0.296875 -0.90625 0.296875 -2.203125q0 -1.796875 -0.59375 -2.765625q-0.578125 -0.96875 -1.421875 -1.296875q-0.609375 -0.234375 -1.96875 -0.234375l-2.40625 0l0 8.75zm10.0703125 1.359375l0 -11.453125l8.28125 0l0 1.34375l-6.765625 0l0 3.515625l6.34375 0l0 1.34375l-6.34375 0l0 3.890625l7.03125 0l0 1.359375l-8.546875 0zm10.578125 0l0 -11.453125l1.515625 0l0 10.09375l5.640625 0l0 1.359375l-7.15625 0zm8.9921875 0l0 -11.453125l8.28125 0l0 1.34375l-6.765625 0l0 3.515625l6.34375 0l0 1.34375l-6.34375 0l0 3.890625l7.03125 0l0 1.359375l-8.546875 0zm13.5625 0l0 -10.109375l-3.78125 0l0 -1.34375l9.078125 0l0 1.34375l-3.78125 0l0 10.109375l-1.515625 0zm6.8828125 0l0 -11.453125l8.28125 0l0 1.34375l-6.765625 0l0 3.515625l6.34375 0l0 1.34375l-6.34375 0l0 3.890625l7.03125 0l0 1.359375l-8.546875 0z" fill-rule="nonzero"/><path fill="#cfe2f3" d="m137.39108 332.11298l0 0c0 -3.4761047 2.8179474 -6.2940674 6.2940826 -6.2940674l75.88426 0c1.6692963 0 3.270218 0.66311646 4.450592 1.8434753c1.1803741 1.1803894 1.8434906 2.781311 1.8434906 4.450592l0 25.175598c0 3.4761353 -2.8179474 6.294098 -6.2940826 6.294098l-75.88426 0c-3.4761353 0 -6.2940826 -2.8179626 -6.2940826 -6.294098z" fill-rule="evenodd"/><path stroke="#424242" stroke-width="1.0" stroke-linejoin="round" stroke-linecap="butt" d="m137.39108 332.11298l0 0c0 -3.4761047 2.8179474 -6.2940674 6.2940826 -6.2940674l75.88426 0c1.6692963 0 3.270218 0.66311646 4.450592 1.8434753c1.1803741 1.1803894 1.8434906 2.781311 1.8434906 4.450592l0 25.175598c0 3.4761353 -2.8179474 6.294098 -6.2940826 6.294098l-75.88426 0c-3.4761353 0 -6.2940826 -2.8179626 -6.2940826 -6.294098z" fill-rule="evenodd"/><path fill="#000000" d="m164.598 346.9333l1.765625 0.453125q-0.5625 2.171875 -2.0 3.328125q-1.4375 1.140625 -3.53125 1.140625q-2.15625 0 -3.515625 -0.875q-1.34375 -0.890625 -2.0625 -2.546875q-0.703125 -1.671875 -0.703125 -3.59375q0 -2.078125 0.796875 -3.625q0.796875 -1.5625 2.265625 -2.359375q1.484375 -0.8125 3.25 -0.8125q2.0 0 3.359375 1.015625q1.375 1.015625 1.90625 2.875l-1.734375 0.40625q-0.46875 -1.453125 -1.359375 -2.109375q-0.875 -0.671875 -2.203125 -0.671875q-1.546875 0 -2.578125 0.734375q-1.03125 0.734375 -1.453125 1.984375q-0.421875 1.234375 -0.421875 2.5625q0 1.703125 0.5 2.96875q0.5 1.265625 1.546875 1.90625q1.046875 0.625 2.265625 0.625q1.484375 0 2.515625 -0.859375q1.03125 -0.859375 1.390625 -2.546875zm3.7229462 4.6875l0 -9.671875l1.46875 0l0 1.46875q0.5625 -1.03125 1.03125 -1.359375q0.484375 -0.328125 1.0625 -0.328125q0.828125 0 1.6875 0.53125l-0.5625 1.515625q-0.609375 -0.359375 -1.203125 -0.359375q-0.546875 0 -0.96875 0.328125q-0.421875 0.328125 -0.609375 0.890625q-0.28125 0.875 -0.28125 1.921875l0 5.0625l-1.625 0zm12.853302 -3.109375l1.6875 0.203125q-0.40625 1.484375 -1.484375 2.3125q-1.078125 0.8125 -2.765625 0.8125q-2.125 0 -3.375 -1.296875q-1.234375 -1.3125 -1.234375 -3.671875q0 -2.453125 1.25 -3.796875q1.265625 -1.34375 3.265625 -1.34375q1.9375 0 3.15625 1.328125q1.234375 1.3125 1.234375 3.703125q0 0.15625 0 0.4375l-7.21875 0q0.09375 1.59375 0.90625 2.453125q0.8125 0.84375 2.015625 0.84375q0.90625 0 1.546875 -0.46875q0.640625 -0.484375 1.015625 -1.515625zm-5.390625 -2.65625l5.40625 0q-0.109375 -1.21875 -0.625 -1.828125q-0.78125 -0.953125 -2.03125 -0.953125q-1.125 0 -1.90625 0.765625q-0.765625 0.75 -0.84375 2.015625zm15.453842 4.578125q-0.921875 0.765625 -1.765625 1.09375q-0.828125 0.3125 -1.796875 0.3125q-1.59375 0 -2.453125 -0.78125q-0.859375 -0.78125 -0.859375 -1.984375q0 -0.71875 0.328125 -1.296875q0.328125 -0.59375 0.84375 -0.9375q0.53125 -0.359375 1.1875 -0.546875q0.46875 -0.125 1.453125 -0.25q1.984375 -0.234375 2.921875 -0.5625q0.015625 -0.34375 0.015625 -0.421875q0 -1.0 -0.46875 -1.421875q-0.625 -0.546875 -1.875 -0.546875q-1.15625 0 -1.703125 0.40625q-0.546875 0.40625 -0.8125 1.421875l-1.609375 -0.21875q0.21875 -1.015625 0.71875 -1.640625q0.5 -0.640625 1.453125 -0.984375q0.953125 -0.34375 2.1875 -0.34375q1.25 0 2.015625 0.296875q0.78125 0.28125 1.140625 0.734375q0.375 0.4375 0.515625 1.109375q0.078125 0.421875 0.078125 1.515625l0 2.1875q0 2.28125 0.109375 2.890625q0.109375 0.59375 0.40625 1.15625l-1.703125 0q-0.265625 -0.515625 -0.328125 -1.1875zm-0.140625 -3.671875q-0.890625 0.375 -2.671875 0.625q-1.015625 0.140625 -1.4375 0.328125q-0.421875 0.1875 -0.65625 0.53125q-0.21875 0.34375 -0.21875 0.78125q0 0.65625 0.5 1.09375q0.5 0.4375 1.453125 0.4375q0.9375 0 1.671875 -0.40625q0.75 -0.421875 1.09375 -1.140625q0.265625 -0.5625 0.265625 -1.640625l0 -0.609375zm7.781967 3.390625l0.234375 1.453125q-0.6875 0.140625 -1.234375 0.140625q-0.890625 0 -1.390625 -0.28125q-0.484375 -0.28125 -0.6875 -0.734375q-0.203125 -0.46875 -0.203125 -1.9375l0 -5.578125l-1.203125 0l0 -1.265625l1.203125 0l0 -2.390625l1.625 -0.984375l0 3.375l1.65625 0l0 1.265625l-1.65625 0l0 5.671875q0 0.6875 0.078125 0.890625q0.09375 0.203125 0.28125 0.328125q0.203125 0.109375 0.578125 0.109375q0.265625 0 0.71875 -0.0625zm8.230179 -1.640625l1.6875 0.203125q-0.40625 1.484375 -1.484375 2.3125q-1.078125 0.8125 -2.765625 0.8125q-2.125 0 -3.375 -1.296875q-1.234375 -1.3125 -1.234375 -3.671875q0 -2.453125 1.25 -3.796875q1.265625 -1.34375 3.265625 -1.34375q1.9375 0 3.15625 1.328125q1.234375 1.3125 1.234375 3.703125q0 0.15625 0 0.4375l-7.21875 0q0.09375 1.59375 0.90625 2.453125q0.8125 0.84375 2.015625 0.84375q0.90625 0 1.546875 -0.46875q0.640625 -0.484375 1.015625 -1.515625zm-5.390625 -2.65625l5.40625 0q-0.109375 -1.21875 -0.625 -1.828125q-0.78125 -0.953125 -2.03125 -0.953125q-1.125 0 -1.90625 0.765625q-0.765625 0.75 -0.84375 2.015625z" fill-rule="nonzero"/><path fill="#cfe2f3" d="m257.3288 332.11298l0 0c0 -3.4761047 2.8179626 -6.2940674 6.294098 -6.2940674l75.88425 0c1.6693115 0 3.2702332 0.66311646 4.450592 1.8434753c1.1803894 1.1803894 1.8435059 2.781311 1.8435059 4.450592l0 25.175598c0 3.4761353 -2.8179626 6.294098 -6.294098 6.294098l-75.88425 0c-3.4761353 0 -6.294098 -2.8179626 -6.294098 -6.294098z" fill-rule="evenodd"/><path stroke="#424242" stroke-width="1.0" stroke-linejoin="round" stroke-linecap="butt" d="m257.3288 332.11298l0 0c0 -3.4761047 2.8179626 -6.2940674 6.294098 -6.2940674l75.88425 0c1.6693115 0 3.2702332 0.66311646 4.450592 1.8434753c1.1803894 1.1803894 1.8435059 2.781311 1.8435059 4.450592l0 25.175598c0 3.4761353 -2.8179626 6.294098 -6.294098 6.294098l-75.88425 0c-3.4761353 0 -6.294098 -2.8179626 -6.294098 -6.294098z" fill-rule="evenodd"/><path fill="#000000" d="m281.6886 338.2614l1.765625 0l0 7.71875q0 2.015625 -0.453125 3.203125q-0.453125 1.1875 -1.640625 1.9375q-1.1875 0.734375 -3.125 0.734375q-1.875 0 -3.078125 -0.640625q-1.1875 -0.65625 -1.703125 -1.875q-0.5 -1.234375 -0.5 -3.359375l0 -7.71875l1.765625 0l0 7.71875q0 1.734375 0.3125 2.5625q0.328125 0.8125 1.109375 1.265625q0.796875 0.453125 1.9375 0.453125q1.953125 0 2.78125 -0.890625q0.828125 -0.890625 0.828125 -3.390625l0 -7.71875zm4.504181 17.0625l0 -13.375l1.484375 0l0 1.25q0.53125 -0.734375 1.1875 -1.09375q0.671875 -0.375 1.625 -0.375q1.234375 0 2.171875 0.640625q0.953125 0.625 1.4375 1.796875q0.484375 1.15625 0.484375 2.546875q0 1.484375 -0.53125 2.671875q-0.53125 1.1875 -1.546875 1.828125q-1.015625 0.625 -2.140625 0.625q-0.8125 0 -1.46875 -0.34375q-0.65625 -0.34375 -1.0625 -0.875l0 4.703125l-1.640625 0zm1.484375 -8.484375q0 1.859375 0.75 2.765625q0.765625 0.890625 1.828125 0.890625q1.09375 0 1.875 -0.921875q0.78125 -0.9375 0.78125 -2.875q0 -1.84375 -0.765625 -2.765625q-0.75 -0.921875 -1.8125 -0.921875q-1.046875 0 -1.859375 0.984375q-0.796875 0.96875 -0.796875 2.84375zm15.156982 4.78125l0 -1.21875q-0.90625 1.4375 -2.703125 1.4375q-1.15625 0 -2.125 -0.640625q-0.96875 -0.640625 -1.5 -1.78125q-0.53125 -1.140625 -0.53125 -2.625q0 -1.453125 0.484375 -2.625q0.484375 -1.1875 1.4375 -1.8125q0.96875 -0.625 2.171875 -0.625q0.875 0 1.546875 0.375q0.6875 0.359375 1.109375 0.953125l0 -4.796875l1.640625 0l0 13.359375l-1.53125 0zm-5.171875 -4.828125q0 1.859375 0.78125 2.78125q0.78125 0.921875 1.84375 0.921875q1.078125 0 1.828125 -0.875q0.75 -0.890625 0.75 -2.6875q0 -1.984375 -0.765625 -2.90625q-0.765625 -0.9375 -1.890625 -0.9375q-1.078125 0 -1.8125 0.890625q-0.734375 0.890625 -0.734375 2.8125zm15.594452 3.640625q-0.921875 0.765625 -1.765625 1.09375q-0.828125 0.3125 -1.796875 0.3125q-1.59375 0 -2.453125 -0.78125q-0.859375 -0.78125 -0.859375 -1.984375q0 -0.71875 0.328125 -1.296875q0.328125 -0.59375 0.84375 -0.9375q0.53125 -0.359375 1.1875 -0.546875q0.46875 -0.125 1.453125 -0.25q1.984375 -0.234375 2.921875 -0.5625q0.015625 -0.34375 0.015625 -0.421875q0 -1.0 -0.46875 -1.421875q-0.625 -0.546875 -1.875 -0.546875q-1.15625 0 -1.703125 0.40625q-0.546875 0.40625 -0.8125 1.421875l-1.609375 -0.21875q0.21875 -1.015625 0.71875 -1.640625q0.5 -0.640625 1.453125 -0.984375q0.953125 -0.34375 2.1875 -0.34375q1.25 0 2.015625 0.296875q0.78125 0.28125 1.140625 0.734375q0.375 0.4375 0.515625 1.109375q0.078125 0.421875 0.078125 1.515625l0 2.1875q0 2.28125 0.109375 2.890625q0.109375 0.59375 0.40625 1.15625l-1.703125 0q-0.265625 -0.515625 -0.328125 -1.1875zm-0.140625 -3.671875q-0.890625 0.375 -2.671875 0.625q-1.015625 0.140625 -1.4375 0.328125q-0.421875 0.1875 -0.65625 0.53125q-0.21875 0.34375 -0.21875 0.78125q0 0.65625 0.5 1.09375q0.5 0.4375 1.453125 0.4375q0.9375 0 1.671875 -0.40625q0.75 -0.421875 1.09375 -1.140625q0.265625 -0.5625 0.265625 -1.640625l0 -0.609375zm7.7819824 3.390625l0.234375 1.453125q-0.6875 0.140625 -1.234375 0.140625q-0.890625 0 -1.390625 -0.28125q-0.484375 -0.28125 -0.6875 -0.734375q-0.203125 -0.46875 -0.203125 -1.9375l0 -5.578125l-1.203125 0l0 -1.265625l1.203125 0l0 -2.390625l1.625 -0.984375l0 3.375l1.65625 0l0 1.265625l-1.65625 0l0 5.671875q0 0.6875 0.078125 0.890625q0.09375 0.203125 0.28125 0.328125q0.203125 0.109375 0.578125 0.109375q0.265625 0 0.71875 -0.0625zm8.230164 -1.640625l1.6875 0.203125q-0.40625 1.484375 -1.484375 2.3125q-1.078125 0.8125 -2.765625 0.8125q-2.125 0 -3.375 -1.296875q-1.234375 -1.3125 -1.234375 -3.671875q0 -2.453125 1.25 -3.796875q1.265625 -1.34375 3.265625 -1.34375q1.9375 0 3.15625 1.328125q1.234375 1.3125 1.234375 3.703125q0 0.15625 0 0.4375l-7.21875 0q0.09375 1.59375 0.90625 2.453125q0.8125 0.84375 2.015625 0.84375q0.90625 0 1.546875 -0.46875q0.640625 -0.484375 1.015625 -1.515625zm-5.390625 -2.65625l5.40625 0q-0.109375 -1.21875 -0.625 -1.828125q-0.78125 -0.953125 -2.03125 -0.953125q-1.125 0 -1.90625 0.765625q-0.765625 0.75 -0.84375 2.015625z" fill-rule="nonzero"/><path fill="#cfe2f3" d="m377.2639 332.11298l0 0c0 -3.4761047 2.8179626 -6.2940674 6.294098 -6.2940674l75.88428 0c1.669281 0 3.2702026 0.66311646 4.450592 1.8434753c1.1803589 1.1803894 1.8434753 2.781311 1.8434753 4.450592l0 25.175598c0 3.4761353 -2.8179626 6.294098 -6.2940674 6.294098l-75.88428 0c-3.4761353 0 -6.294098 -2.8179626 -6.294098 -6.294098z" fill-rule="evenodd"/><path stroke="#424242" stroke-width="1.0" stroke-linejoin="round" stroke-linecap="butt" d="m377.2639 332.11298l0 0c0 -3.4761047 2.8179626 -6.2940674 6.294098 -6.2940674l75.88428 0c1.669281 0 3.2702026 0.66311646 4.450592 1.8434753c1.1803589 1.1803894 1.8434753 2.781311 1.8434753 4.450592l0 25.175598c0 3.4761353 -2.8179626 6.294098 -6.2940674 6.294098l-75.88428 0c-3.4761353 0 -6.294098 -2.8179626 -6.294098 -6.294098z" fill-rule="evenodd"/><path fill="#000000" d="m399.0844 351.6208l0 -13.359375l5.046875 0q1.328125 0 2.03125 0.125q0.96875 0.171875 1.640625 0.640625q0.671875 0.453125 1.078125 1.28125q0.40625 0.828125 0.40625 1.828125q0 1.703125 -1.09375 2.890625q-1.078125 1.171875 -3.921875 1.171875l-3.421875 0l0 5.421875l-1.765625 0zm1.765625 -7.0l3.453125 0q1.71875 0 2.4375 -0.640625q0.71875 -0.640625 0.71875 -1.796875q0 -0.84375 -0.421875 -1.4375q-0.421875 -0.59375 -1.125 -0.78125q-0.4375 -0.125 -1.640625 -0.125l-3.421875 0l0 4.78125zm16.787323 5.8125q-0.921875 0.765625 -1.765625 1.09375q-0.828125 0.3125 -1.796875 0.3125q-1.59375 0 -2.453125 -0.78125q-0.859375 -0.78125 -0.859375 -1.984375q0 -0.71875 0.328125 -1.296875q0.328125 -0.59375 0.84375 -0.9375q0.53125 -0.359375 1.1875 -0.546875q0.46875 -0.125 1.453125 -0.25q1.984375 -0.234375 2.921875 -0.5625q0.015625 -0.34375 0.015625 -0.421875q0 -1.0 -0.46875 -1.421875q-0.625 -0.546875 -1.875 -0.546875q-1.15625 0 -1.703125 0.40625q-0.546875 0.40625 -0.8125 1.421875l-1.609375 -0.21875q0.21875 -1.015625 0.71875 -1.640625q0.5 -0.640625 1.453125 -0.984375q0.953125 -0.34375 2.1875 -0.34375q1.25 0 2.015625 0.296875q0.78125 0.28125 1.140625 0.734375q0.375 0.4375 0.515625 1.109375q0.078125 0.421875 0.078125 1.515625l0 2.1875q0 2.28125 0.109375 2.890625q0.109375 0.59375 0.40625 1.15625l-1.703125 0q-0.265625 -0.515625 -0.328125 -1.1875zm-0.140625 -3.671875q-0.890625 0.375 -2.671875 0.625q-1.015625 0.140625 -1.4375 0.328125q-0.421875 0.1875 -0.65625 0.53125q-0.21875 0.34375 -0.21875 0.78125q0 0.65625 0.5 1.09375q0.5 0.4375 1.453125 0.4375q0.9375 0 1.671875 -0.40625q0.75 -0.421875 1.09375 -1.140625q0.265625 -0.5625 0.265625 -1.640625l0 -0.609375zm7.781952 3.390625l0.234375 1.453125q-0.6875 0.140625 -1.234375 0.140625q-0.890625 0 -1.390625 -0.28125q-0.484375 -0.28125 -0.6875 -0.734375q-0.203125 -0.46875 -0.203125 -1.9375l0 -5.578125l-1.203125 0l0 -1.265625l1.203125 0l0 -2.390625l1.625 -0.984375l0 3.375l1.65625 0l0 1.265625l-1.65625 0l0 5.671875q0 0.6875 0.078125 0.890625q0.09375 0.203125 0.28125 0.328125q0.203125 0.109375 0.578125 0.109375q0.265625 0 0.71875 -0.0625zm7.917694 -2.078125l1.609375 0.21875q-0.265625 1.65625 -1.359375 2.609375q-1.078125 0.9375 -2.671875 0.9375q-1.984375 0 -3.1875 -1.296875q-1.203125 -1.296875 -1.203125 -3.71875q0 -1.578125 0.515625 -2.75q0.515625 -1.171875 1.578125 -1.75q1.0625 -0.59375 2.3125 -0.59375q1.578125 0 2.578125 0.796875q1.0 0.796875 1.28125 2.265625l-1.59375 0.234375q-0.234375 -0.96875 -0.8125 -1.453125q-0.578125 -0.5 -1.390625 -0.5q-1.234375 0 -2.015625 0.890625q-0.78125 0.890625 -0.78125 2.8125q0 1.953125 0.75 2.84375q0.75 0.875 1.953125 0.875q0.96875 0 1.609375 -0.59375q0.65625 -0.59375 0.828125 -1.828125zm3.015625 3.546875l0 -13.359375l1.640625 0l0 4.796875q1.140625 -1.328125 2.890625 -1.328125q1.078125 0 1.859375 0.421875q0.796875 0.421875 1.140625 1.171875q0.34375 0.75 0.34375 2.171875l0 6.125l-1.640625 0l0 -6.125q0 -1.234375 -0.53125 -1.796875q-0.53125 -0.5625 -1.515625 -0.5625q-0.71875 0 -1.359375 0.390625q-0.640625 0.375 -0.921875 1.015625q-0.265625 0.640625 -0.265625 1.78125l0 5.296875l-1.640625 0z" fill-rule="nonzero"/><path fill="#cfe2f3" d="m620.27704 332.11298l0 0c0 -3.4761047 2.8179321 -6.2940674 6.2940674 -6.2940674l75.88428 0c1.6693115 0 3.2702026 0.66311646 4.4505615 1.8434753c1.1804199 1.1803894 1.8435059 2.781311 1.8435059 4.450592l0 25.175598c0 3.4761353 -2.8179321 6.294098 -6.2940674 6.294098l-75.88428 0c-3.4761353 0 -6.2940674 -2.8179626 -6.2940674 -6.294098z" fill-rule="evenodd"/><path stroke="#424242" stroke-width="1.0" stroke-linejoin="round" stroke-linecap="butt" d="m620.27704 332.11298l0 0c0 -3.4761047 2.8179321 -6.2940674 6.2940674 -6.2940674l75.88428 0c1.6693115 0 3.2702026 0.66311646 4.4505615 1.8434753c1.1804199 1.1803894 1.8435059 2.781311 1.8435059 4.450592l0 25.175598c0 3.4761353 -2.8179321 6.294098 -6.2940674 6.294098l-75.88428 0c-3.4761353 0 -6.2940674 -2.8179626 -6.2940674 -6.294098z" fill-rule="evenodd"/><path fill="#000000" d="m642.6226 350.5608l0 -11.453125l3.953125 0q1.328125 0 2.03125 0.15625q0.984375 0.234375 1.6875 0.828125q0.90625 0.765625 1.34375 1.953125q0.453125 1.1875 0.453125 2.71875q0 1.3125 -0.3125 2.328125q-0.296875 1.0 -0.78125 1.65625q-0.46875 0.65625 -1.03125 1.046875q-0.5625 0.375 -1.375 0.578125q-0.796875 0.1875 -1.828125 0.1875l-4.140625 0zm1.515625 -1.359375l2.453125 0q1.125 0 1.765625 -0.203125q0.65625 -0.21875 1.03125 -0.59375q0.546875 -0.546875 0.84375 -1.453125q0.296875 -0.90625 0.296875 -2.203125q0 -1.796875 -0.59375 -2.765625q-0.578125 -0.96875 -1.421875 -1.296875q-0.609375 -0.234375 -1.96875 -0.234375l-2.40625 0l0 8.75zm15.5390625 -1.3125l1.453125 0.171875q-0.34375 1.28125 -1.28125 1.984375q-0.921875 0.703125 -2.359375 0.703125q-1.828125 0 -2.890625 -1.125q-1.0625 -1.125 -1.0625 -3.140625q0 -2.09375 1.078125 -3.25q1.078125 -1.15625 2.796875 -1.15625q1.65625 0 2.703125 1.140625q1.0625 1.125 1.0625 3.171875q0 0.125 0 0.375l-6.1875 0q0.078125 1.375 0.765625 2.109375q0.703125 0.71875 1.734375 0.71875q0.78125 0 1.328125 -0.40625q0.546875 -0.40625 0.859375 -1.296875zm-4.609375 -2.28125l4.625 0q-0.09375 -1.046875 -0.53125 -1.5625q-0.671875 -0.8125 -1.734375 -0.8125q-0.96875 0 -1.640625 0.65625q-0.65625 0.640625 -0.71875 1.71875zm7.8046875 4.953125l0 -11.453125l1.40625 0l0 11.453125l-1.40625 0zm9.2578125 -2.671875l1.453125 0.171875q-0.34375 1.28125 -1.28125 1.984375q-0.921875 0.703125 -2.359375 0.703125q-1.828125 0 -2.890625 -1.125q-1.0625 -1.125 -1.0625 -3.140625q0 -2.09375 1.078125 -3.25q1.078125 -1.15625 2.796875 -1.15625q1.65625 0 2.703125 1.140625q1.0625 1.125 1.0625 3.171875q0 0.125 0 0.375l-6.1875 0q0.078125 1.375 0.765625 2.109375q0.703125 0.71875 1.734375 0.71875q0.78125 0 1.328125 -0.40625q0.546875 -0.40625 0.859375 -1.296875zm-4.609375 -2.28125l4.625 0q-0.09375 -1.046875 -0.53125 -1.5625q-0.671875 -0.8125 -1.734375 -0.8125q-0.96875 0 -1.640625 0.65625q-0.65625 0.640625 -0.71875 1.71875zm10.8984375 3.6875l0.203125 1.25q-0.59375 0.125 -1.0625 0.125q-0.765625 0 -1.1875 -0.234375q-0.421875 -0.25 -0.59375 -0.640625q-0.171875 -0.40625 -0.171875 -1.671875l0 -4.765625l-1.03125 0l0 -1.09375l1.03125 0l0 -2.0625l1.40625 -0.84375l0 2.90625l1.40625 0l0 1.09375l-1.40625 0l0 4.84375q0 0.609375 0.0625 0.78125q0.078125 0.171875 0.25 0.28125q0.171875 0.09375 0.484375 0.09375q0.234375 0 0.609375 -0.0625zm7.0546875 -1.40625l1.453125 0.171875q-0.34375 1.28125 -1.28125 1.984375q-0.921875 0.703125 -2.359375 0.703125q-1.828125 0 -2.890625 -1.125q-1.0625 -1.125 -1.0625 -3.140625q0 -2.09375 1.078125 -3.25q1.078125 -1.15625 2.796875 -1.15625q1.65625 0 2.703125 1.140625q1.0625 1.125 1.0625 3.171875q0 0.125 0 0.375l-6.1875 0q0.078125 1.375 0.765625 2.109375q0.703125 0.71875 1.734375 0.71875q0.78125 0 1.328125 -0.40625q0.546875 -0.40625 0.859375 -1.296875zm-4.609375 -2.28125l4.625 0q-0.09375 -1.046875 -0.53125 -1.5625q-0.671875 -0.8125 -1.734375 -0.8125q-0.96875 0 -1.640625 0.65625q-0.65625 0.640625 -0.71875 1.71875z" fill-rule="nonzero"/><path fill="#f9cb9c" d="m10.259701 395.08136l91.88977 0l0 -9.4409485l18.88189 18.881897l-18.88189 18.881897l0 -9.4409485l-91.88977 0z" fill-rule="evenodd"/><path stroke="#424242" stroke-width="1.0" stroke-linejoin="round" stroke-linecap="butt" d="m10.259701 395.08136l91.88977 0l0 -9.4409485l18.88189 18.881897l-18.88189 18.881897l0 -9.4409485l-91.88977 0z" fill-rule="evenodd"/><path fill="#000000" d="m20.7597 411.44232l0 -13.359375l1.765625 0l0 5.484375l6.9375 0l0 -5.484375l1.765625 0l0 13.359375l-1.765625 0l0 -6.296875l-6.9375 0l0 6.296875l-1.765625 0zm16.816696 0l0 -11.78125l-4.40625 0l0 -1.578125l10.578125 0l0 1.578125l-4.40625 0l0 11.78125l-1.765625 0zm11.395981 0l0 -11.78125l-4.40625 0l0 -1.578125l10.578125 0l0 1.578125l-4.40625 0l0 11.78125l-1.765625 0zm7.989731 0l0 -13.359375l5.046875 0q1.328125 0 2.0312538 0.125q0.96875 0.171875 1.640625 0.640625q0.671875 0.453125 1.078125 1.28125q0.40625 0.828125 0.40625 1.828125q0 1.703125 -1.09375 2.890625q-1.078125 1.171875 -3.9218788 1.171875l-3.421875 0l0 5.421875l-1.765625 0zm1.765625 -7.0l3.453125 0q1.71875 0 2.4375038 -0.640625q0.71875 -0.640625 0.71875 -1.796875q0 -0.84375 -0.421875 -1.4375q-0.421875 -0.59375 -1.1250038 -0.78125q-0.4375 -0.125 -1.640625 -0.125l-3.421875 0l0 4.78125z" fill-rule="nonzero"/><path fill="#f9cb9c" d="m10.241469 335.25986l91.88976 0l0 -9.4409485l18.88189 18.881866l-18.88189 18.881897l0 -9.4409485l-91.88976 0z" fill-rule="evenodd"/><path stroke="#424242" stroke-width="1.0" stroke-linejoin="round" stroke-linecap="butt" d="m10.241469 335.25986l91.88976 0l0 -9.4409485l18.88189 18.881866l-18.88189 18.881897l0 -9.4409485l-91.88976 0z" fill-rule="evenodd"/><path fill="#000000" d="m26.24147 347.5439l1.5 0.203125q-0.234375 1.546875 -1.25 2.421875q-1.015625 0.875 -2.484375 0.875q-1.84375 0 -2.96875 -1.203125q-1.125 -1.203125 -1.125 -3.453125q0 -1.46875 0.484375 -2.546875q0.484375 -1.09375 1.46875 -1.640625q0.984375 -0.546875 2.140625 -0.546875q1.46875 0 2.390625 0.75q0.9375 0.734375 1.203125 2.09375l-1.484375 0.21875q-0.203125 -0.890625 -0.75 -1.34375q-0.53125 -0.46875 -1.296875 -0.46875q-1.140625 0 -1.875 0.828125q-0.71875 0.828125 -0.71875 2.609375q0 1.8125 0.6875 2.640625q0.703125 0.8125 1.828125 0.8125q0.890625 0 1.484375 -0.546875q0.609375 -0.5625 0.765625 -1.703125zm2.7734375 3.296875l0 -12.40625l1.515625 0l0 12.40625l-1.515625 0zm3.896637 -10.65625l0 -1.75l1.515625 0l0 1.75l-1.515625 0zm0 10.65625l0 -8.984375l1.515625 0l0 8.984375l-1.515625 0zm9.990387 -2.890625l1.5625 0.1875q-0.359375 1.390625 -1.375 2.15625q-1.0 0.75 -2.5625 0.75q-1.984375 0 -3.140625 -1.203125q-1.140625 -1.21875 -1.140625 -3.421875q0 -2.265625 1.15625 -3.515625q1.171875 -1.25 3.03125 -1.25q1.8125 0 2.953125 1.234375q1.140625 1.21875 1.140625 3.4375q0 0.140625 -0.015625 0.40625l-6.703125 0q0.09375 1.484375 0.84375 2.28125q0.75 0.78125 1.875 0.78125q0.84375 0 1.4375 -0.4375q0.59375 -0.4375 0.9375 -1.40625zm-5.0 -2.46875l5.015625 0q-0.109375 -1.125 -0.578125 -1.703125q-0.734375 -0.875 -1.890625 -0.875q-1.046875 0 -1.765625 0.703125q-0.703125 0.703125 -0.78125 1.875zm8.480835 5.359375l0 -8.984375l1.375 0l0 1.28125q0.984375 -1.484375 2.859375 -1.484375q0.8125 0 1.484375 0.296875q0.6875 0.28125 1.015625 0.765625q0.34375 0.46875 0.484375 1.125q0.078125 0.421875 0.078125 1.46875l0 5.53125l-1.515625 0l0 -5.46875q0 -0.921875 -0.1875 -1.375q-0.171875 -0.46875 -0.625 -0.75q-0.453125 -0.28125 -1.0625 -0.28125q-0.96875 0 -1.671875 0.625q-0.703125 0.609375 -0.703125 2.34375l0 4.90625l-1.53125 0zm12.96521 -1.359375l0.21875 1.34375q-0.640625 0.140625 -1.15625 0.140625q-0.828125 0 -1.28125 -0.265625q-0.453125 -0.265625 -0.640625 -0.6875q-0.1875 -0.4375 -0.1875 -1.796875l0 -5.171875l-1.125 0l0 -1.1875l1.125 0l0 -2.21875l1.515625 -0.921875l0 3.140625l1.53125 0l0 1.1875l-1.53125 0l0 5.25q0 0.65625 0.078125 0.84375q0.078125 0.1875 0.25 0.296875q0.1875 0.109375 0.53125 0.109375q0.25 0 0.671875 -0.0625zm0.8768158 -1.328125l1.515625 -0.234375q0.125 0.90625 0.703125 1.390625q0.578125 0.484375 1.609375 0.484375q1.0625 0 1.5625 -0.421875q0.515625 -0.4375 0.515625 -1.015625q0 -0.515625 -0.453125 -0.8125q-0.3125 -0.203125 -1.5625 -0.515625q-1.671875 -0.421875 -2.328125 -0.71875q-0.640625 -0.3125 -0.984375 -0.859375q-0.328125 -0.546875 -0.328125 -1.203125q0 -0.609375 0.28125 -1.109375q0.28125 -0.515625 0.75 -0.859375q0.359375 -0.265625 0.96875 -0.4375q0.609375 -0.1875 1.3125 -0.1875q1.0625 0 1.859375 0.3125q0.796875 0.296875 1.171875 0.828125q0.390625 0.515625 0.53125 1.375l-1.484375 0.203125q-0.109375 -0.6875 -0.59375 -1.078125q-0.484375 -0.390625 -1.375 -0.390625q-1.046875 0 -1.5 0.34375q-0.4375 0.34375 -0.4375 0.8125q0 0.296875 0.171875 0.53125q0.1875 0.25 0.59375 0.40625q0.21875 0.09375 1.34375 0.390625q1.609375 0.4375 2.25 0.71875q0.640625 0.265625 1.0 0.796875q0.375 0.515625 0.375 1.296875q0 0.765625 -0.453125 1.4375q-0.4375 0.671875 -1.28125 1.046875q-0.828125 0.359375 -1.890625 0.359375q-1.75 0 -2.671875 -0.71875q-0.921875 -0.734375 -1.171875 -2.171875zm15.4296875 -0.203125l1.5625 0.1875q-0.359375 1.390625 -1.375 2.15625q-1.0 0.75 -2.5625 0.75q-1.984375 0 -3.140625 -1.203125q-1.140625 -1.21875 -1.140625 -3.421875q0 -2.265625 1.15625 -3.515625q1.171875 -1.25 3.03125 -1.25q1.8125 0 2.953125 1.234375q1.140625 1.21875 1.140625 3.4375q0 0.140625 -0.015625 0.40625l-6.703125 0q0.09375 1.484375 0.84375 2.28125q0.75 0.78125 1.875 0.78125q0.84375 0 1.4375 -0.4375q0.59375 -0.4375 0.9375 -1.40625zm-5.0 -2.46875l5.015625 0q-0.109375 -1.125 -0.578125 -1.703125q-0.734375 -0.875 -1.890625 -0.875q-1.046875 0 -1.765625 0.703125q-0.703125 0.703125 -0.78125 1.875zm11.80896 4.0l0.21875 1.34375q-0.640625 0.140625 -1.15625 0.140625q-0.828125 0 -1.28125 -0.265625q-0.453125 -0.265625 -0.640625 -0.6875q-0.1875 -0.4375 -0.1875 -1.796875l0 -5.171875l-1.125 0l0 -1.1875l1.125 0l0 -2.21875l1.515625 -0.921875l0 3.140625l1.53125 0l0 1.1875l-1.53125 0l0 5.25q0 0.65625 0.078125 0.84375q0.078125 0.1875 0.25 0.296875q0.1875 0.109375 0.53125 0.109375q0.25 0 0.671875 -0.0625z" fill-rule="nonzero"/><path fill="#f9cb9c" d="m10.259701 101.86877l91.88977 0l0 -9.4409485l18.88189 18.88189l-18.88189 18.881897l0 -9.4409485l-91.88977 0z" fill-rule="evenodd"/><path stroke="#424242" stroke-width="1.0" stroke-linejoin="round" stroke-linecap="butt" d="m10.259701 101.86877l91.88977 0l0 -9.4409485l18.88189 18.88189l-18.88189 18.881897l0 -9.4409485l-91.88977 0z" fill-rule="evenodd"/><path fill="#000000" d="m19.22845 117.16971l4.40625 -11.453125l1.640625 0l4.6875 11.453125l-1.734375 0l-1.328125 -3.46875l-4.796875 0l-1.25 3.46875l-1.625 0zm3.3125 -4.703125l3.890625 0l-1.203125 -3.171875q-0.546875 -1.453125 -0.8125 -2.375q-0.21875 1.09375 -0.609375 2.1875l-1.265625 3.359375zm8.453125 7.890625l0 -11.484375l1.28125 0l0 1.078125q0.453125 -0.640625 1.015625 -0.953125q0.578125 -0.3125 1.390625 -0.3125q1.0625 0 1.875 0.546875q0.8125 0.546875 1.21875 1.546875q0.421875 0.984375 0.421875 2.171875q0 1.28125 -0.46875 2.296875q-0.453125 1.015625 -1.328125 1.5625q-0.859375 0.546875 -1.828125 0.546875q-0.703125 0 -1.265625 -0.296875q-0.546875 -0.296875 -0.90625 -0.75l0 4.046875l-1.40625 0zm1.265625 -7.296875q0 1.609375 0.640625 2.375q0.65625 0.765625 1.578125 0.765625q0.9375 0 1.609375 -0.796875q0.671875 -0.796875 0.671875 -2.453125q0 -1.59375 -0.65625 -2.375q-0.65625 -0.796875 -1.5625 -0.796875q-0.890625 0 -1.59375 0.84375q-0.6875 0.84375 -0.6875 2.4375zm7.6328125 7.296875l0 -11.484375l1.28125 0l0 1.078125q0.453125 -0.640625 1.015625 -0.953125q0.578125 -0.3125 1.390625 -0.3125q1.0625 0 1.875 0.546875q0.8125 0.546875 1.21875 1.546875q0.421875 0.984375 0.421875 2.171875q0 1.28125 -0.46875 2.296875q-0.453125 1.015625 -1.328125 1.5625q-0.859375 0.546875 -1.828125 0.546875q-0.703125 0 -1.265625 -0.296875q-0.546875 -0.296875 -0.90625 -0.75l0 4.046875l-1.40625 0zm1.265625 -7.296875q0 1.609375 0.640625 2.375q0.65625 0.765625 1.578125 0.765625q0.9375 0 1.609375 -0.796875q0.671875 -0.796875 0.671875 -2.453125q0 -1.59375 -0.65625 -2.375q-0.65625 -0.796875 -1.5625 -0.796875q-0.890625 0 -1.59375 0.84375q-0.6875 0.84375 -0.6875 2.4375zm7.6015625 4.109375l0 -11.453125l1.40625 0l0 11.453125l-1.40625 0zm3.5859375 -9.84375l0 -1.609375l1.40625 0l0 1.609375l-1.40625 0zm0 9.84375l0 -8.296875l1.40625 0l0 8.296875l-1.40625 0zm8.9609375 -3.046875l1.390625 0.1875q-0.234375 1.421875 -1.171875 2.234375q-0.921875 0.8125 -2.28125 0.8125q-1.703125 0 -2.75 -1.109375q-1.03125 -1.125 -1.03125 -3.203125q0 -1.34375 0.4375 -2.34375q0.453125 -1.015625 1.359375 -1.515625q0.921875 -0.5 1.984375 -0.5q1.359375 0 2.21875 0.6875q0.859375 0.671875 1.09375 1.9375l-1.359375 0.203125q-0.203125 -0.828125 -0.703125 -1.25q-0.484375 -0.421875 -1.1875 -0.421875q-1.0625 0 -1.734375 0.765625q-0.65625 0.75 -0.65625 2.40625q0 1.671875 0.640625 2.4375q0.640625 0.75 1.671875 0.75q0.828125 0 1.375 -0.5q0.5625 -0.515625 0.703125 -1.578125zm8.000004 2.015625q-0.78125 0.671875 -1.5 0.953125q-0.71875 0.265625 -1.546875 0.265625q-1.375 0 -2.109375 -0.671875q-0.7343788 -0.671875 -0.7343788 -1.703125q0 -0.609375 0.28125 -1.109375q0.28125 -0.515625 0.7187538 -0.8125q0.453125 -0.3125 1.015625 -0.46875q0.421875 -0.109375 1.25 -0.203125q1.703125 -0.203125 2.515625 -0.484375q0 -0.296875 0 -0.375q0 -0.859375 -0.390625 -1.203125q-0.546875 -0.484375 -1.609375 -0.484375q-0.984375 0 -1.46875 0.359375q-0.46875 0.34375 -0.6875 1.21875l-1.3750038 -0.1875q0.1875 -0.875 0.6093788 -1.421875q0.4375 -0.546875 1.25 -0.828125q0.8125 -0.296875 1.875 -0.296875q1.0625 0 1.71875 0.25q0.671875 0.25 0.984375 0.625q0.3125 0.375 0.4375 0.953125q0.078125 0.359375 0.078125 1.296875l0 1.875q0 1.96875 0.078125 2.484375q0.09375 0.515625 0.359375 1.0l-1.46875 0q-0.21875 -0.4375 -0.28125 -1.03125zm-0.109375 -3.140625q-0.765625 0.3125 -2.296875 0.53125q-0.875 0.125 -1.234375 0.28125q-0.359375 0.15625 -0.5625 0.46875q-0.1875 0.296875 -0.1875 0.65625q0 0.5625 0.421875 0.9375q0.4375 0.375 1.25 0.375q0.8125 0 1.4375 -0.34375q0.640625 -0.359375 0.9375 -0.984375q0.234375 -0.46875 0.234375 -1.40625l0 -0.515625zm6.6640625 2.90625l0.203125 1.25q-0.59375 0.125 -1.0625 0.125q-0.765625 0 -1.1875 -0.234375q-0.421875 -0.25 -0.59375 -0.640625q-0.171875 -0.40625 -0.171875 -1.671875l0 -4.765625l-1.03125 0l0 -1.09375l1.03125 0l0 -2.0625l1.40625 -0.84375l0 2.90625l1.40625 0l0 1.09375l-1.40625 0l0 4.84375q0 0.609375 0.0625 0.78125q0.078125 0.171875 0.25 0.28125q0.171875 0.09375 0.484375 0.09375q0.234375 0 0.609375 -0.0625zm1.3828125 -8.578125l0 -1.609375l1.40625 0l0 1.609375l-1.40625 0zm0 9.84375l0 -8.296875l1.40625 0l0 8.296875l-1.40625 0zm3.0234375 -4.15625q0 -2.296875 1.28125 -3.40625q1.078125 -0.921875 2.609375 -0.921875q1.71875 0 2.796875 1.125q1.09375 1.109375 1.09375 3.09375q0 1.59375 -0.484375 2.515625q-0.484375 0.921875 -1.40625 1.4375q-0.90625 0.5 -2.0 0.5q-1.734375 0 -2.8125 -1.109375q-1.078125 -1.125 -1.078125 -3.234375zm1.453125 0q0 1.59375 0.6875 2.390625q0.703125 0.796875 1.75 0.796875q1.046875 0 1.734375 -0.796875q0.703125 -0.796875 0.703125 -2.4375q0 -1.53125 -0.703125 -2.328125q-0.6875 -0.796875 -1.734375 -0.796875q-1.046875 0 -1.75 0.796875q-0.6875 0.78125 -0.6875 2.375zm7.9765625 4.15625l0 -8.296875l1.265625 0l0 1.171875q0.90625 -1.359375 2.640625 -1.359375q0.75 0 1.375 0.265625q0.625 0.265625 0.9375 0.703125q0.3125 0.4375 0.4375 1.046875q0.078125 0.390625 0.078125 1.359375l0 5.109375l-1.40625 0l0 -5.046875q0 -0.859375 -0.171875 -1.28125q-0.15625 -0.4375 -0.578125 -0.6875q-0.40625 -0.25 -0.96875 -0.25q-0.90625 0 -1.5625 0.578125q-0.640625 0.5625 -0.640625 2.15625l0 4.53125l-1.40625 0z" fill-rule="nonzero"/><path fill="#ff9900" d="m137.39108 170.15498l0 0c0 -3.4761353 2.8179474 -6.294098 6.2940826 -6.294098l75.88426 0c1.6692963 0 3.270218 0.6631317 4.450592 1.8435059c1.1803741 1.1803741 1.8434906 2.7812958 1.8434906 4.450592l0 25.175598c0 3.4761353 -2.8179474 6.2940826 -6.2940826 6.2940826l-75.88426 0c-3.4761353 0 -6.2940826 -2.8179474 -6.2940826 -6.2940826z" fill-rule="evenodd"/><path stroke="#424242" stroke-width="1.0" stroke-linejoin="round" stroke-linecap="butt" d="m137.39108 170.15498l0 0c0 -3.4761353 2.8179474 -6.294098 6.2940826 -6.294098l75.88426 0c1.6692963 0 3.270218 0.6631317 4.450592 1.8435059c1.1803741 1.1803741 1.8434906 2.7812958 1.8434906 4.450592l0 25.175598c0 3.4761353 -2.8179474 6.2940826 -6.2940826 6.2940826l-75.88426 0c-3.4761353 0 -6.2940826 -2.8179474 -6.2940826 -6.2940826z" fill-rule="evenodd"/><path fill="#000000" d="m163.24855 186.1159l1.609375 0.21875q-0.265625 1.65625 -1.359375 2.609375q-1.078125 0.9375 -2.671875 0.9375q-1.984375 0 -3.1875 -1.296875q-1.203125 -1.296875 -1.203125 -3.71875q0 -1.578125 0.515625 -2.75q0.515625 -1.171875 1.578125 -1.75q1.0625 -0.59375 2.3125 -0.59375q1.578125 0 2.578125 0.796875q1.0 0.796875 1.28125 2.265625l-1.59375 0.234375q-0.234375 -0.96875 -0.8125 -1.453125q-0.578125 -0.5 -1.390625 -0.5q-1.234375 0 -2.015625 0.890625q-0.78125 0.890625 -0.78125 2.8125q0 1.953125 0.75 2.84375q0.75 0.875 1.953125 0.875q0.96875 0 1.609375 -0.59375q0.65625 -0.59375 0.828125 -1.828125zm3.0 3.546875l0 -9.671875l1.46875 0l0 1.46875q0.5625 -1.03125 1.03125 -1.359375q0.484375 -0.328125 1.0625 -0.328125q0.828125 0 1.6875 0.53125l-0.5625 1.515625q-0.609375 -0.359375 -1.203125 -0.359375q-0.546875 0 -0.96875 0.328125q-0.421875 0.328125 -0.609375 0.890625q-0.28125 0.875 -0.28125 1.921875l0 5.0625l-1.625 0zm12.853302 -3.109375l1.6875 0.203125q-0.40625 1.484375 -1.484375 2.3125q-1.078125 0.8125 -2.765625 0.8125q-2.125 0 -3.375 -1.296875q-1.234375 -1.3125 -1.234375 -3.671875q0 -2.453125 1.25 -3.796875q1.265625 -1.34375 3.265625 -1.34375q1.9375 0 3.15625 1.328125q1.234375 1.3125 1.234375 3.703125q0 0.15625 0 0.4375l-7.21875 0q0.09375 1.59375 0.90625 2.453125q0.8125 0.84375 2.015625 0.84375q0.90625 0 1.546875 -0.46875q0.640625 -0.484375 1.015625 -1.515625zm-5.390625 -2.65625l5.40625 0q-0.109375 -1.21875 -0.625 -1.828125q-0.78125 -0.953125 -2.03125 -0.953125q-1.125 0 -1.90625 0.765625q-0.765625 0.75 -0.84375 2.015625zm15.453842 4.578125q-0.921875 0.765625 -1.765625 1.09375q-0.828125 0.3125 -1.796875 0.3125q-1.59375 0 -2.453125 -0.78125q-0.859375 -0.78125 -0.859375 -1.984375q0 -0.71875 0.328125 -1.296875q0.328125 -0.59375 0.84375 -0.9375q0.53125 -0.359375 1.1875 -0.546875q0.46875 -0.125 1.453125 -0.25q1.984375 -0.234375 2.921875 -0.5625q0.015625 -0.34375 0.015625 -0.421875q0 -1.0 -0.46875 -1.421875q-0.625 -0.546875 -1.875 -0.546875q-1.15625 0 -1.703125 0.40625q-0.546875 0.40625 -0.8125 1.421875l-1.609375 -0.21875q0.21875 -1.015625 0.71875 -1.640625q0.5 -0.640625 1.453125 -0.984375q0.953125 -0.34375 2.1875 -0.34375q1.25 0 2.015625 0.296875q0.78125 0.28125 1.140625 0.734375q0.375 0.4375 0.515625 1.109375q0.078125 0.421875 0.078125 1.515625l0 2.1875q0 2.28125 0.109375 2.890625q0.109375 0.59375 0.40625 1.15625l-1.703125 0q-0.265625 -0.515625 -0.328125 -1.1875zm-0.140625 -3.671875q-0.890625 0.375 -2.671875 0.625q-1.015625 0.140625 -1.4375 0.328125q-0.421875 0.1875 -0.65625 0.53125q-0.21875 0.34375 -0.21875 0.78125q0 0.65625 0.5 1.09375q0.5 0.4375 1.453125 0.4375q0.9375 0 1.671875 -0.40625q0.75 -0.421875 1.09375 -1.140625q0.265625 -0.5625 0.265625 -1.640625l0 -0.609375zm7.781967 3.390625l0.234375 1.453125q-0.6875 0.140625 -1.234375 0.140625q-0.890625 0 -1.390625 -0.28125q-0.484375 -0.28125 -0.6875 -0.734375q-0.203125 -0.46875 -0.203125 -1.9375l0 -5.578125l-1.203125 0l0 -1.265625l1.203125 0l0 -2.390625l1.625 -0.984375l0 3.375l1.65625 0l0 1.265625l-1.65625 0l0 5.671875q0 0.6875 0.078125 0.890625q0.09375 0.203125 0.28125 0.328125q0.203125 0.109375 0.578125 0.109375q0.265625 0 0.71875 -0.0625zm8.230179 -1.640625l1.6875 0.203125q-0.40625 1.484375 -1.484375 2.3125q-1.078125 0.8125 -2.765625 0.8125q-2.125 0 -3.375 -1.296875q-1.234375 -1.3125 -1.234375 -3.671875q0 -2.453125 1.25 -3.796875q1.265625 -1.34375 3.265625 -1.34375q1.9375 0 3.15625 1.328125q1.234375 1.3125 1.234375 3.703125q0 0.15625 0 0.4375l-7.21875 0q0.09375 1.59375 0.90625 2.453125q0.8125 0.84375 2.015625 0.84375q0.90625 0 1.546875 -0.46875q0.640625 -0.484375 1.015625 -1.515625zm-5.390625 -2.65625l5.40625 0q-0.109375 -1.21875 -0.625 -1.828125q-0.78125 -0.953125 -2.03125 -0.953125q-1.125 0 -1.90625 0.765625q-0.765625 0.75 -0.84375 2.015625z" fill-rule="nonzero"/><path fill="#ff9900" d="m498.7638 170.15498l0 0c0 -3.4761353 2.8179321 -6.294098 6.2940674 -6.294098l75.88428 0c1.6693115 0 3.2702026 0.6631317 4.4505615 1.8435059c1.1804199 1.1803741 1.8435059 2.7812958 1.8435059 4.450592l0 25.175598c0 3.4761353 -2.8179321 6.2940826 -6.2940674 6.2940826l-75.88428 0c-3.4761353 0 -6.2940674 -2.8179474 -6.2940674 -6.2940826z" fill-rule="evenodd"/><path stroke="#424242" stroke-width="1.0" stroke-linejoin="round" stroke-linecap="butt" d="m498.7638 170.15498l0 0c0 -3.4761353 2.8179321 -6.294098 6.2940674 -6.294098l75.88428 0c1.6693115 0 3.2702026 0.6631317 4.4505615 1.8435059c1.1804199 1.1803741 1.8435059 2.7812958 1.8435059 4.450592l0 25.175598c0 3.4761353 -2.8179321 6.2940826 -6.2940674 6.2940826l-75.88428 0c-3.4761353 0 -6.2940674 -2.8179474 -6.2940674 -6.2940826z" fill-rule="evenodd"/><path fill="#000000" d="m528.2468 188.47528q-0.921875 0.765625 -1.765625 1.09375q-0.828125 0.3125 -1.796875 0.3125q-1.59375 0 -2.453125 -0.78125q-0.859375 -0.78125 -0.859375 -1.984375q0 -0.71875 0.328125 -1.296875q0.328125 -0.59375 0.84375 -0.9375q0.53125 -0.359375 1.1875 -0.546875q0.46875 -0.125 1.453125 -0.25q1.984375 -0.234375 2.921875 -0.5625q0.015625 -0.34375 0.015625 -0.421875q0 -1.0 -0.46875 -1.421875q-0.625 -0.546875 -1.875 -0.546875q-1.15625 0 -1.703125 0.40625q-0.546875 0.40625 -0.8125 1.421875l-1.609375 -0.21875q0.21875 -1.015625 0.71875 -1.640625q0.5 -0.640625 1.453125 -0.984375q0.953125 -0.34375 2.1875 -0.34375q1.25 0 2.015625 0.296875q0.78125 0.28125 1.140625 0.734375q0.375 0.4375 0.515625 1.109375q0.078125 0.421875 0.078125 1.515625l0 2.1875q0 2.28125 0.109375 2.890625q0.109375 0.59375 0.40625 1.15625l-1.703125 0q-0.265625 -0.515625 -0.328125 -1.1875zm-0.140625 -3.671875q-0.890625 0.375 -2.671875 0.625q-1.015625 0.140625 -1.4375 0.328125q-0.421875 0.1875 -0.65625 0.53125q-0.21875 0.34375 -0.21875 0.78125q0 0.65625 0.5 1.09375q0.5 0.4375 1.453125 0.4375q0.9375 0 1.671875 -0.40625q0.75 -0.421875 1.09375 -1.140625q0.265625 -0.5625 0.265625 -1.640625l0 -0.609375zm4.2038574 8.5625l0 -13.375l1.484375 0l0 1.25q0.53125 -0.734375 1.1875 -1.09375q0.671875 -0.375 1.625 -0.375q1.234375 0 2.171875 0.640625q0.953125 0.625 1.4375 1.796875q0.484375 1.15625 0.484375 2.546875q0 1.484375 -0.53125 2.671875q-0.53125 1.1875 -1.546875 1.828125q-1.015625 0.625 -2.140625 0.625q-0.8125 0 -1.46875 -0.34375q-0.65625 -0.34375 -1.0625 -0.875l0 4.703125l-1.640625 0zm1.484375 -8.484375q0 1.859375 0.75 2.765625q0.765625 0.890625 1.828125 0.890625q1.09375 0 1.875 -0.921875q0.78125 -0.9375 0.78125 -2.875q0 -1.84375 -0.765625 -2.765625q-0.75 -0.921875 -1.8125 -0.921875q-1.046875 0 -1.859375 0.984375q-0.796875 0.96875 -0.796875 2.84375zm8.891357 8.484375l0 -13.375l1.484375 0l0 1.25q0.53125 -0.734375 1.1875 -1.09375q0.671875 -0.375 1.625 -0.375q1.234375 0 2.171875 0.640625q0.953125 0.625 1.4375 1.796875q0.484375 1.15625 0.484375 2.546875q0 1.484375 -0.53125 2.671875q-0.53125 1.1875 -1.546875 1.828125q-1.015625 0.625 -2.140625 0.625q-0.8125 0 -1.46875 -0.34375q-0.65625 -0.34375 -1.0625 -0.875l0 4.703125l-1.640625 0zm1.484375 -8.484375q0 1.859375 0.75 2.765625q0.765625 0.890625 1.828125 0.890625q1.09375 0 1.875 -0.921875q0.78125 -0.9375 0.78125 -2.875q0 -1.84375 -0.765625 -2.765625q-0.75 -0.921875 -1.8125 -0.921875q-1.046875 0 -1.859375 0.984375q-0.796875 0.96875 -0.796875 2.84375zm8.844421 4.78125l0 -13.359375l1.640625 0l0 13.359375l-1.640625 0zm4.1135864 3.71875l-0.1875 -1.53125q0.546875 0.140625 0.9375 0.140625q0.546875 0 0.875 -0.1875q0.328125 -0.171875 0.546875 -0.5q0.15625 -0.25 0.5 -1.21875q0.046875 -0.140625 0.140625 -0.40625l-3.671875 -9.6875l1.765625 0l2.015625 5.59375q0.390625 1.078125 0.703125 2.25q0.28125 -1.125 0.671875 -2.203125l2.078125 -5.640625l1.640625 0l-3.6875 9.828125q-0.59375 1.609375 -0.921875 2.203125q-0.4375 0.8125 -1.0 1.1875q-0.5625 0.375 -1.34375 0.375q-0.484375 0 -1.0625 -0.203125z" fill-rule="nonzero"/><path fill="#cfe2f3" d="m498.77045 332.11298l0 0c0 -3.4761047 2.8179626 -6.2940674 6.294098 -6.2940674l75.88425 0c1.6693115 0 3.2702637 0.66311646 4.4506226 1.8434753c1.1803589 1.1803894 1.8435059 2.781311 1.8435059 4.450592l0 25.175598c0 3.4761353 -2.8179932 6.294098 -6.2941284 6.294098l-75.88425 0c-3.4761353 0 -6.294098 -2.8179626 -6.294098 -6.294098z" fill-rule="evenodd"/><path stroke="#424242" stroke-width="1.0" stroke-linejoin="round" stroke-linecap="butt" d="m498.77045 332.11298l0 0c0 -3.4761047 2.8179626 -6.2940674 6.294098 -6.2940674l75.88425 0c1.6693115 0 3.2702637 0.66311646 4.4506226 1.8434753c1.1803589 1.1803894 1.8435059 2.781311 1.8435059 4.450592l0 25.175598c0 3.4761353 -2.8179932 6.294098 -6.2941284 6.294098l-75.88425 0c-3.4761353 0 -6.294098 -2.8179626 -6.294098 -6.294098z" fill-rule="evenodd"/><path fill="#000000" d="m519.6415 351.6208l5.125 -13.359375l1.90625 0l5.46875 13.359375l-2.015625 0l-1.546875 -4.046875l-5.59375 0l-1.46875 4.046875l-1.875 0zm3.859375 -5.484375l4.53125 0l-1.40625 -3.703125q-0.625 -1.6875 -0.9375 -2.765625q-0.265625 1.28125 -0.71875 2.546875l-1.46875 3.921875zm9.8497925 9.1875l0 -13.375l1.484375 0l0 1.25q0.53125 -0.734375 1.1875 -1.09375q0.671875 -0.375 1.625 -0.375q1.234375 0 2.171875 0.640625q0.953125 0.625 1.4375 1.796875q0.484375 1.15625 0.484375 2.546875q0 1.484375 -0.53125 2.671875q-0.53125 1.1875 -1.546875 1.828125q-1.015625 0.625 -2.140625 0.625q-0.8125 0 -1.46875 -0.34375q-0.65625 -0.34375 -1.0625 -0.875l0 4.703125l-1.640625 0zm1.484375 -8.484375q0 1.859375 0.75 2.765625q0.765625 0.890625 1.828125 0.890625q1.09375 0 1.875 -0.921875q0.78125 -0.9375 0.78125 -2.875q0 -1.84375 -0.765625 -2.765625q-0.75 -0.921875 -1.8125 -0.921875q-1.046875 0 -1.859375 0.984375q-0.796875 0.96875 -0.796875 2.84375zm8.891357 8.484375l0 -13.375l1.484375 0l0 1.25q0.53125 -0.734375 1.1875 -1.09375q0.671875 -0.375 1.625 -0.375q1.234375 0 2.171875 0.640625q0.953125 0.625 1.4375 1.796875q0.484375 1.15625 0.484375 2.546875q0 1.484375 -0.53125 2.671875q-0.53125 1.1875 -1.546875 1.828125q-1.015625 0.625 -2.140625 0.625q-0.8125 0 -1.46875 -0.34375q-0.65625 -0.34375 -1.0625 -0.875l0 4.703125l-1.640625 0zm1.484375 -8.484375q0 1.859375 0.75 2.765625q0.765625 0.890625 1.828125 0.890625q1.09375 0 1.875 -0.921875q0.78125 -0.9375 0.78125 -2.875q0 -1.84375 -0.765625 -2.765625q-0.75 -0.921875 -1.8125 -0.921875q-1.046875 0 -1.859375 0.984375q-0.796875 0.96875 -0.796875 2.84375zm8.844482 4.78125l0 -13.359375l1.640625 0l0 13.359375l-1.640625 0zm4.1135254 3.71875l-0.1875 -1.53125q0.546875 0.140625 0.9375 0.140625q0.546875 0 0.875 -0.1875q0.328125 -0.171875 0.546875 -0.5q0.15625 -0.25 0.5 -1.21875q0.046875 -0.140625 0.140625 -0.40625l-3.671875 -9.6875l1.765625 0l2.015625 5.59375q0.390625 1.078125 0.703125 2.25q0.28125 -1.125 0.671875 -2.203125l2.078125 -5.640625l1.640625 0l-3.6875 9.828125q-0.59375 1.609375 -0.921875 2.203125q-0.4375 0.8125 -1.0 1.1875q-0.5625 0.375 -1.34375 0.375q-0.484375 0 -1.0625 -0.203125z" fill-rule="nonzero"/><path fill="#000000" fill-opacity="0.0" d="m181.6273 363.58267l0 20.75592" fill-rule="evenodd"/><path stroke="#424242" stroke-width="1.0" stroke-linejoin="round" stroke-linecap="butt" d="m181.6273 363.58267l0 14.75592" fill-rule="evenodd"/><path fill="#424242" stroke="#424242" stroke-width="1.0" stroke-linecap="butt" d="m179.97557 378.3386l1.6517334 4.538086l1.6517181 -4.538086z" fill-rule="evenodd"/><path fill="#000000" fill-opacity="0.0" d="m301.56503 363.58267l0 20.75592" fill-rule="evenodd"/><path stroke="#424242" stroke-width="1.0" stroke-linejoin="round" stroke-linecap="butt" d="m301.56503 363.58267l0 14.75592" fill-rule="evenodd"/><path fill="#424242" stroke="#424242" stroke-width="1.0" stroke-linecap="butt" d="m299.9133 378.3386l1.6517334 4.538086l1.6517334 -4.538086z" fill-rule="evenodd"/><path fill="#000000" fill-opacity="0.0" d="m421.50012 363.58267l0 20.75592" fill-rule="evenodd"/><path stroke="#424242" stroke-width="1.0" stroke-linejoin="round" stroke-linecap="butt" d="m421.50012 363.58267l0 14.75592" fill-rule="evenodd"/><path fill="#424242" stroke="#424242" stroke-width="1.0" stroke-linecap="butt" d="m419.8484 378.3386l1.6517334 4.538086l1.6517334 -4.538086z" fill-rule="evenodd"/><path fill="#000000" fill-opacity="0.0" d="m543.00665 363.58267l-121.51178 20.75592" fill-rule="evenodd"/><path stroke="#424242" stroke-width="1.0" stroke-linejoin="round" stroke-linecap="butt" d="m543.0067 363.58267l-115.5975 19.745667" fill-rule="evenodd"/><path fill="#424242" stroke="#424242" stroke-width="1.0" stroke-linecap="butt" d="m427.1311 381.7002l-4.1951904 2.3922424l4.751404 0.8640442z" fill-rule="evenodd"/><path fill="#000000" fill-opacity="0.0" d="m664.51324 363.58267l0 20.75592" fill-rule="evenodd"/><path stroke="#424242" stroke-width="1.0" stroke-linejoin="round" stroke-linecap="butt" d="m664.51324 363.58267l0 14.75592" fill-rule="evenodd"/><path fill="#424242" stroke="#424242" stroke-width="1.0" stroke-linecap="butt" d="m662.8615 378.3386l1.6517334 4.538086l1.6517334 -4.538086z" fill-rule="evenodd"/><path fill="#000000" fill-opacity="0.0" d="m181.6273 201.62466l0 124.188995" fill-rule="evenodd"/><path stroke="#424242" stroke-width="1.0" stroke-linejoin="round" stroke-linecap="butt" d="m181.6273 201.62466l0 118.188995" fill-rule="evenodd"/><path fill="#424242" stroke="#424242" stroke-width="1.0" stroke-linecap="butt" d="m179.97557 319.81366l1.6517334 4.538086l1.6517181 -4.538086z" fill-rule="evenodd"/><path fill="#000000" fill-opacity="0.0" d="m543.0 201.62466l-121.51181 124.188995" fill-rule="evenodd"/><path stroke="#424242" stroke-width="1.0" stroke-linejoin="round" stroke-linecap="butt" d="m543.0 201.62466l-117.31564 119.90036" fill-rule="evenodd"/><path fill="#424242" stroke="#424242" stroke-width="1.0" stroke-linecap="butt" d="m424.50375 320.36987l-1.9931641 4.3988647l4.35437 -2.088562z" fill-rule="evenodd"/><path fill="#000000" fill-opacity="0.0" d="m543.0 201.62466l0 124.188995" fill-rule="evenodd"/><path stroke="#424242" stroke-width="1.0" stroke-linejoin="round" stroke-linecap="butt" d="m543.0 201.62466l0 118.188995" fill-rule="evenodd"/><path fill="#424242" stroke="#424242" stroke-width="1.0" stroke-linecap="butt" d="m541.34827 319.81366l1.6517334 4.538086l1.6517334 -4.538086z" fill-rule="evenodd"/><path fill="#000000" fill-opacity="0.0" d="m489.30054 201.62466l44.22046 0l0 32.314972l-44.22046 0z" fill-rule="evenodd"/><path fill="#000000" d="m502.61304 220.97404q-1.171875 0 -2.015625 -0.46875q-0.828125 -0.484375 -1.28125 -1.34375q-0.4375 -0.875 -0.4375 -2.0625q0 -0.875 0.25 -1.578125q0.265625 -0.71875 0.734375 -1.21875q0.484375 -0.515625 1.171875 -0.78125q0.703125 -0.28125 1.578125 -0.28125q0.59375 0 1.15625 0.15625q0.5625 0.140625 0.984375 0.421875q0.234375 0.140625 0.296875 0.34375q0.078125 0.1875 0.03125 0.375q-0.03125 0.1875 -0.171875 0.328125q-0.125 0.125 -0.328125 0.140625q-0.203125 0.015625 -0.4375 -0.140625q-0.328125 -0.21875 -0.71875 -0.3125q-0.375 -0.09375 -0.765625 -0.09375q-0.75 0 -1.28125 0.3125q-0.515625 0.3125 -0.78125 0.90625q-0.265625 0.578125 -0.265625 1.421875q0 0.84375 0.265625 1.453125q0.265625 0.59375 0.78125 0.90625q0.53125 0.296875 1.28125 0.296875q0.40625 0 0.796875 -0.09375q0.390625 -0.109375 0.75 -0.328125q0.234375 -0.125 0.421875 -0.109375q0.1875 0.015625 0.3125 0.140625q0.125 0.109375 0.171875 0.28125q0.046875 0.171875 -0.03125 0.359375q-0.0625 0.1875 -0.25 0.328125q-0.421875 0.3125 -1.015625 0.484375q-0.59375 0.15625 -1.203125 0.15625zm6.1800537 0q-0.46875 0 -0.9375 -0.078125q-0.46875 -0.0625 -0.890625 -0.203125q-0.40625 -0.140625 -0.734375 -0.359375q-0.1875 -0.125 -0.265625 -0.296875q-0.078125 -0.1875 -0.0625 -0.359375q0.03125 -0.1875 0.140625 -0.3125q0.125 -0.140625 0.296875 -0.171875q0.171875 -0.03125 0.375 0.09375q0.46875 0.28125 0.984375 0.40625q0.515625 0.125 1.09375 0.125q0.84375 0 1.21875 -0.28125q0.390625 -0.28125 0.390625 -0.734375q0 -0.359375 -0.28125 -0.578125q-0.265625 -0.21875 -0.921875 -0.359375l-1.171875 -0.234375q-1.015625 -0.21875 -1.515625 -0.71875q-0.484375 -0.515625 -0.484375 -1.34375q0 -0.515625 0.203125 -0.9375q0.21875 -0.4375 0.609375 -0.734375q0.390625 -0.3125 0.921875 -0.484375q0.546875 -0.171875 1.1875 -0.171875q0.640625 0 1.21875 0.171875q0.578125 0.15625 1.03125 0.46875q0.171875 0.109375 0.234375 0.28125q0.0625 0.171875 0.03125 0.34375q-0.03125 0.15625 -0.15625 0.28125q-0.109375 0.109375 -0.296875 0.140625q-0.171875 0.015625 -0.390625 -0.109375q-0.390625 -0.234375 -0.796875 -0.328125q-0.40625 -0.09375 -0.875 -0.09375q-0.5 0 -0.859375 0.140625q-0.34375 0.140625 -0.53125 0.390625q-0.171875 0.25 -0.171875 0.59375q0 0.375 0.25 0.609375q0.25 0.234375 0.875 0.359375l1.15625 0.234375q1.0625 0.234375 1.578125 0.71875q0.515625 0.46875 0.515625 1.265625q0 0.515625 -0.21875 0.9375q-0.203125 0.40625 -0.59375 0.703125q-0.390625 0.296875 -0.9375 0.46875q-0.53125 0.15625 -1.21875 0.15625zm4.1552124 -0.03125q-0.25 0 -0.40625 -0.109375q-0.15625 -0.125 -0.1875 -0.3125q-0.03125 -0.203125 0.078125 -0.4375l2.8125 -6.234375q0.140625 -0.3125 0.328125 -0.4375q0.203125 -0.140625 0.453125 -0.140625q0.25 0 0.4375 0.140625q0.203125 0.125 0.34375 0.4375l2.828125 6.234375q0.109375 0.234375 0.078125 0.4375q-0.03125 0.203125 -0.1875 0.3125q-0.140625 0.109375 -0.375 0.109375q-0.3125 0 -0.484375 -0.140625q-0.15625 -0.140625 -0.28125 -0.4375l-0.6875 -1.609375l0.578125 0.375l-4.5 0l0.578125 -0.375l-0.6875 1.609375q-0.140625 0.3125 -0.296875 0.453125q-0.140625 0.125 -0.421875 0.125zm3.0625 -6.109375l-1.484375 3.546875l-0.28125 -0.34375l3.5625 0l-0.265625 0.34375l-1.515625 -3.546875l-0.015625 0z" fill-rule="nonzero"/><path fill="#000000" fill-opacity="0.0" d="m543.0 201.62466l44.22046 0l0 32.314972l-44.22046 0z" fill-rule="evenodd"/><path fill="#000000" d="m555.40625 220.97404q-0.46875 0 -0.9375 -0.078125q-0.46875 -0.0625 -0.890625 -0.203125q-0.40625 -0.140625 -0.734375 -0.359375q-0.1875 -0.125 -0.265625 -0.296875q-0.078125 -0.1875 -0.0625 -0.359375q0.03125 -0.1875 0.140625 -0.3125q0.125 -0.140625 0.296875 -0.171875q0.171875 -0.03125 0.375 0.09375q0.46875 0.28125 0.984375 0.40625q0.515625 0.125 1.09375 0.125q0.84375 0 1.21875 -0.28125q0.390625 -0.28125 0.390625 -0.734375q0 -0.359375 -0.28125 -0.578125q-0.265625 -0.21875 -0.921875 -0.359375l-1.171875 -0.234375q-1.015625 -0.21875 -1.515625 -0.71875q-0.484375 -0.515625 -0.484375 -1.34375q0 -0.515625 0.203125 -0.9375q0.21875 -0.4375 0.609375 -0.734375q0.390625 -0.3125 0.921875 -0.484375q0.546875 -0.171875 1.1875 -0.171875q0.640625 0 1.21875 0.171875q0.578125 0.15625 1.03125 0.46875q0.171875 0.109375 0.234375 0.28125q0.0625 0.171875 0.03125 0.34375q-0.03125 0.15625 -0.15625 0.28125q-0.109375 0.109375 -0.296875 0.140625q-0.171875 0.015625 -0.390625 -0.109375q-0.390625 -0.234375 -0.796875 -0.328125q-0.40625 -0.09375 -0.875 -0.09375q-0.5 0 -0.859375 0.140625q-0.34375 0.140625 -0.53125 0.390625q-0.171875 0.25 -0.171875 0.59375q0 0.375 0.25 0.609375q0.25 0.234375 0.875 0.359375l1.15625 0.234375q1.0625 0.234375 1.578125 0.71875q0.515625 0.46875 0.515625 1.265625q0 0.515625 -0.21875 0.9375q-0.203125 0.40625 -0.59375 0.703125q-0.390625 0.296875 -0.9375 0.46875q-0.53125 0.15625 -1.21875 0.15625zm6.724182 0q-0.46875 0 -0.9375 -0.078125q-0.46875 -0.0625 -0.890625 -0.203125q-0.40625 -0.140625 -0.734375 -0.359375q-0.1875 -0.125 -0.265625 -0.296875q-0.078125 -0.1875 -0.0625 -0.359375q0.03125 -0.1875 0.140625 -0.3125q0.125 -0.140625 0.296875 -0.171875q0.171875 -0.03125 0.375 0.09375q0.46875 0.28125 0.984375 0.40625q0.515625 0.125 1.09375 0.125q0.84375 0 1.21875 -0.28125q0.390625 -0.28125 0.390625 -0.734375q0 -0.359375 -0.28125 -0.578125q-0.265625 -0.21875 -0.921875 -0.359375l-1.171875 -0.234375q-1.015625 -0.21875 -1.515625 -0.71875q-0.484375 -0.515625 -0.484375 -1.34375q0 -0.515625 0.203125 -0.9375q0.21875 -0.4375 0.609375 -0.734375q0.390625 -0.3125 0.921875 -0.484375q0.546875 -0.171875 1.1875 -0.171875q0.640625 0 1.21875 0.171875q0.578125 0.15625 1.03125 0.46875q0.171875 0.109375 0.234375 0.28125q0.0625 0.171875 0.03125 0.34375q-0.03125 0.15625 -0.15625 0.28125q-0.109375 0.109375 -0.296875 0.140625q-0.171875 0.015625 -0.390625 -0.109375q-0.390625 -0.234375 -0.796875 -0.328125q-0.40625 -0.09375 -0.875 -0.09375q-0.5 0 -0.859375 0.140625q-0.34375 0.140625 -0.53125 0.390625q-0.171875 0.25 -0.171875 0.59375q0 0.375 0.25 0.609375q0.25 0.234375 0.875 0.359375l1.15625 0.234375q1.0625 0.234375 1.578125 0.71875q0.515625 0.46875 0.515625 1.265625q0 0.515625 -0.21875 0.9375q-0.203125 0.40625 -0.59375 0.703125q-0.390625 0.296875 -0.9375 0.46875q-0.53125 0.15625 -1.21875 0.15625zm4.1552124 -0.03125q-0.25 0 -0.40625 -0.109375q-0.15625 -0.125 -0.1875 -0.3125q-0.03125 -0.203125 0.078125 -0.4375l2.8125 -6.234375q0.140625 -0.3125 0.328125 -0.4375q0.203125 -0.140625 0.453125 -0.140625q0.25 0 0.4375 0.140625q0.203125 0.125 0.34375 0.4375l2.828125 6.234375q0.109375 0.234375 0.078125 0.4375q-0.03125 0.203125 -0.1875 0.3125q-0.140625 0.109375 -0.375 0.109375q-0.3125 0 -0.484375 -0.140625q-0.15625 -0.140625 -0.28125 -0.4375l-0.6875 -1.609375l0.578125 0.375l-4.5 0l0.578125 -0.375l-0.6875 1.609375q-0.140625 0.3125 -0.296875 0.453125q-0.140625 0.125 -0.421875 0.125zm3.0625 -6.109375l-1.484375 3.546875l-0.28125 -0.34375l3.5625 0l-0.265625 0.34375l-1.515625 -3.546875l-0.015625 0z" fill-rule="nonzero"/><path fill="#ff9900" d="m377.2651 170.15498l0 0c0 -3.4761353 2.8179321 -6.294098 6.2940674 -6.294098l75.88428 0c1.669281 0 3.2702026 0.6631317 4.450592 1.8435059c1.1803589 1.1803741 1.8434753 2.7812958 1.8434753 4.450592l0 25.175598c0 3.4761353 -2.8179321 6.2940826 -6.2940674 6.2940826l-75.88428 0c-3.4761353 0 -6.2940674 -2.8179474 -6.2940674 -6.2940826z" fill-rule="evenodd"/><path stroke="#424242" stroke-width="1.0" stroke-linejoin="round" stroke-linecap="butt" d="m377.2651 170.15498l0 0c0 -3.4761353 2.8179321 -6.294098 6.2940674 -6.294098l75.88428 0c1.669281 0 3.2702026 0.6631317 4.450592 1.8435059c1.1803589 1.1803741 1.8434753 2.7812958 1.8434753 4.450592l0 25.175598c0 3.4761353 -2.8179321 6.2940826 -6.2940674 6.2940826l-75.88428 0c-3.4761353 0 -6.2940674 -2.8179474 -6.2940674 -6.2940826z" fill-rule="evenodd"/><path fill="#000000" d="m399.9164 193.3659l0 -13.375l1.484375 0l0 1.25q0.53125 -0.734375 1.1875 -1.09375q0.671875 -0.375 1.625 -0.375q1.234375 0 2.171875 0.640625q0.953125 0.625 1.4375 1.796875q0.484375 1.15625 0.484375 2.546875q0 1.484375 -0.53125 2.671875q-0.53125 1.1875 -1.546875 1.828125q-1.015625 0.625 -2.140625 0.625q-0.8125 0 -1.46875 -0.34375q-0.65625 -0.34375 -1.0625 -0.875l0 4.703125l-1.640625 0zm1.484375 -8.484375q0 1.859375 0.75 2.765625q0.765625 0.890625 1.828125 0.890625q1.09375 0 1.875 -0.921875q0.78125 -0.9375 0.78125 -2.875q0 -1.84375 -0.765625 -2.765625q-0.75 -0.921875 -1.8125 -0.921875q-1.046875 0 -1.859375 0.984375q-0.796875 0.96875 -0.796875 2.84375zm15.203827 3.59375q-0.921875 0.765625 -1.765625 1.09375q-0.828125 0.3125 -1.796875 0.3125q-1.59375 0 -2.453125 -0.78125q-0.859375 -0.78125 -0.859375 -1.984375q0 -0.71875 0.328125 -1.296875q0.328125 -0.59375 0.84375 -0.9375q0.53125 -0.359375 1.1875 -0.546875q0.46875 -0.125 1.453125 -0.25q1.984375 -0.234375 2.921875 -0.5625q0.015625 -0.34375 0.015625 -0.421875q0 -1.0 -0.46875 -1.421875q-0.625 -0.546875 -1.875 -0.546875q-1.15625 0 -1.703125 0.40625q-0.546875 0.40625 -0.8125 1.421875l-1.609375 -0.21875q0.21875 -1.015625 0.71875 -1.640625q0.5 -0.640625 1.453125 -0.984375q0.953125 -0.34375 2.1875 -0.34375q1.25 0 2.015625 0.296875q0.78125 0.28125 1.140625 0.734375q0.375 0.4375 0.515625 1.109375q0.078125 0.421875 0.078125 1.515625l0 2.1875q0 2.28125 0.109375 2.890625q0.109375 0.59375 0.40625 1.15625l-1.703125 0q-0.265625 -0.515625 -0.328125 -1.1875zm-0.140625 -3.671875q-0.890625 0.375 -2.671875 0.625q-1.015625 0.140625 -1.4375 0.328125q-0.421875 0.1875 -0.65625 0.53125q-0.21875 0.34375 -0.21875 0.78125q0 0.65625 0.5 1.09375q0.5 0.4375 1.453125 0.4375q0.9375 0 1.671875 -0.40625q0.75 -0.421875 1.09375 -1.140625q0.265625 -0.5625 0.265625 -1.640625l0 -0.609375zm7.7819824 3.390625l0.234375 1.453125q-0.6875 0.140625 -1.234375 0.140625q-0.890625 0 -1.390625 -0.28125q-0.484375 -0.28125 -0.6875 -0.734375q-0.203125 -0.46875 -0.203125 -1.9375l0 -5.578125l-1.203125 0l0 -1.265625l1.203125 0l0 -2.390625l1.625 -0.984375l0 3.375l1.65625 0l0 1.265625l-1.65625 0l0 5.671875q0 0.6875 0.078125 0.890625q0.09375 0.203125 0.28125 0.328125q0.203125 0.109375 0.578125 0.109375q0.265625 0 0.71875 -0.0625zm7.9176636 -2.078125l1.609375 0.21875q-0.265625 1.65625 -1.359375 2.609375q-1.078125 0.9375 -2.671875 0.9375q-1.984375 0 -3.1875 -1.296875q-1.203125 -1.296875 -1.203125 -3.71875q0 -1.578125 0.515625 -2.75q0.515625 -1.171875 1.578125 -1.75q1.0625 -0.59375 2.3125 -0.59375q1.578125 0 2.578125 0.796875q1.0 0.796875 1.28125 2.265625l-1.59375 0.234375q-0.234375 -0.96875 -0.8125 -1.453125q-0.578125 -0.5 -1.390625 -0.5q-1.234375 0 -2.015625 0.890625q-0.78125 0.890625 -0.78125 2.8125q0 1.953125 0.75 2.84375q0.75 0.875 1.953125 0.875q0.96875 0 1.609375 -0.59375q0.65625 -0.59375 0.828125 -1.828125zm3.015625 3.546875l0 -13.359375l1.640625 0l0 4.796875q1.140625 -1.328125 2.890625 -1.328125q1.078125 0 1.859375 0.421875q0.796875 0.421875 1.140625 1.171875q0.34375 0.75 0.34375 2.171875l0 6.125l-1.640625 0l0 -6.125q0 -1.234375 -0.53125 -1.796875q-0.53125 -0.5625 -1.515625 -0.5625q-0.71875 0 -1.359375 0.390625q-0.640625 0.375 -0.921875 1.015625q-0.265625 0.640625 -0.265625 1.78125l0 5.296875l-1.640625 0z" fill-rule="nonzero"/><path fill="#000000" fill-opacity="0.0" d="m421.5013 201.62466l0 124.188995" fill-rule="evenodd"/><path stroke="#424242" stroke-width="1.0" stroke-linejoin="round" stroke-linecap="butt" d="m421.5013 201.62466l0 118.188995" fill-rule="evenodd"/><path fill="#424242" stroke="#424242" stroke-width="1.0" stroke-linecap="butt" d="m419.84958 319.81366l1.6517334 4.538086l1.6517334 -4.538086z" fill-rule="evenodd"/><path fill="#ff9900" d="m257.3281 170.15498l0 0c0 -3.4761353 2.8179626 -6.294098 6.2940674 -6.294098l75.88428 0c1.669281 0 3.2702332 0.6631317 4.450592 1.8435059c1.1803589 1.1803741 1.8435059 2.7812958 1.8435059 4.450592l0 25.175598c0 3.4761353 -2.8179626 6.2940826 -6.294098 6.2940826l-75.88428 0c-3.4761047 0 -6.2940674 -2.8179474 -6.2940674 -6.2940826z" fill-rule="evenodd"/><path stroke="#424242" stroke-width="1.0" stroke-linejoin="round" stroke-linecap="butt" d="m257.3281 170.15498l0 0c0 -3.4761353 2.8179626 -6.294098 6.2940674 -6.294098l75.88428 0c1.669281 0 3.2702332 0.6631317 4.450592 1.8435059c1.1803589 1.1803741 1.8435059 2.7812958 1.8435059 4.450592l0 25.175598c0 3.4761353 -2.8179626 6.2940826 -6.294098 6.2940826l-75.88428 0c-3.4761047 0 -6.2940674 -2.8179474 -6.2940674 -6.2940826z" fill-rule="evenodd"/><path fill="#2b2b2b" d="m272.1888 189.66278l0 -9.671875l1.46875 0l0 1.46875q0.5625 -1.03125 1.03125 -1.359375q0.484375 -0.328125 1.0625 -0.328125q0.828125 0 1.6875 0.53125l-0.5625 1.515625q-0.609375 -0.359375 -1.203125 -0.359375q-0.546875 0 -0.96875 0.328125q-0.421875 0.328125 -0.609375 0.890625q-0.28125 0.875 -0.28125 1.921875l0 5.0625l-1.625 0zm12.853302 -3.109375l1.6875 0.203125q-0.40625 1.484375 -1.484375 2.3125q-1.078125 0.8125 -2.765625 0.8125q-2.125 0 -3.375 -1.296875q-1.234375 -1.3125 -1.234375 -3.671875q0 -2.453125 1.25 -3.796875q1.265625 -1.34375 3.265625 -1.34375q1.9375 0 3.15625 1.328125q1.234375 1.3125 1.234375 3.703125q0 0.15625 0 0.4375l-7.21875 0q0.09375 1.59375 0.90625 2.453125q0.8125 0.84375 2.015625 0.84375q0.90625 0 1.546875 -0.46875q0.640625 -0.484375 1.015625 -1.515625zm-5.390625 -2.65625l5.40625 0q-0.109375 -1.21875 -0.625 -1.828125q-0.78125 -0.953125 -2.03125 -0.953125q-1.125 0 -1.90625 0.765625q-0.765625 0.75 -0.84375 2.015625zm9.141327 9.46875l0 -13.375l1.484375 0l0 1.25q0.53125 -0.734375 1.1875 -1.09375q0.671875 -0.375 1.625 -0.375q1.234375 0 2.171875 0.640625q0.953125 0.625 1.4375 1.796875q0.484375 1.15625 0.484375 2.546875q0 1.484375 -0.53125 2.671875q-0.53125 1.1875 -1.546875 1.828125q-1.015625 0.625 -2.140625 0.625q-0.8125 0 -1.46875 -0.34375q-0.65625 -0.34375 -1.0625 -0.875l0 4.703125l-1.640625 0zm1.484375 -8.484375q0 1.859375 0.75 2.765625q0.765625 0.890625 1.828125 0.890625q1.09375 0 1.875 -0.921875q0.78125 -0.9375 0.78125 -2.875q0 -1.84375 -0.765625 -2.765625q-0.75 -0.921875 -1.8125 -0.921875q-1.046875 0 -1.859375 0.984375q-0.796875 0.96875 -0.796875 2.84375zm8.844482 4.78125l0 -13.359375l1.640625 0l0 13.359375l-1.640625 0zm10.504181 -1.1875q-0.921875 0.765625 -1.765625 1.09375q-0.828125 0.3125 -1.796875 0.3125q-1.59375 0 -2.453125 -0.78125q-0.859375 -0.78125 -0.859375 -1.984375q0 -0.71875 0.328125 -1.296875q0.328125 -0.59375 0.84375 -0.9375q0.53125 -0.359375 1.1875 -0.546875q0.46875 -0.125 1.453125 -0.25q1.984375 -0.234375 2.921875 -0.5625q0.015625 -0.34375 0.015625 -0.421875q0 -1.0 -0.46875 -1.421875q-0.625 -0.546875 -1.875 -0.546875q-1.15625 0 -1.703125 0.40625q-0.546875 0.40625 -0.8125 1.421875l-1.609375 -0.21875q0.21875 -1.015625 0.71875 -1.640625q0.5 -0.640625 1.453125 -0.984375q0.953125 -0.34375 2.1875 -0.34375q1.25 0 2.015625 0.296875q0.78125 0.28125 1.140625 0.734375q0.375 0.4375 0.515625 1.109375q0.078125 0.421875 0.078125 1.515625l0 2.1875q0 2.28125 0.109375 2.890625q0.109375 0.59375 0.40625 1.15625l-1.703125 0q-0.265625 -0.515625 -0.328125 -1.1875zm-0.140625 -3.671875q-0.890625 0.375 -2.671875 0.625q-1.015625 0.140625 -1.4375 0.328125q-0.421875 0.1875 -0.65625 0.53125q-0.21875 0.34375 -0.21875 0.78125q0 0.65625 0.5 1.09375q0.5 0.4375 1.453125 0.4375q0.9375 0 1.671875 -0.40625q0.75 -0.421875 1.09375 -1.140625q0.265625 -0.5625 0.265625 -1.640625l0 -0.609375zm10.516357 1.3125l1.609375 0.21875q-0.265625 1.65625 -1.359375 2.609375q-1.078125 0.9375 -2.671875 0.9375q-1.984375 0 -3.1875 -1.296875q-1.203125 -1.296875 -1.203125 -3.71875q0 -1.578125 0.515625 -2.75q0.515625 -1.171875 1.578125 -1.75q1.0625 -0.59375 2.3125 -0.59375q1.578125 0 2.578125 0.796875q1.0 0.796875 1.28125 2.265625l-1.59375 0.234375q-0.234375 -0.96875 -0.8125 -1.453125q-0.578125 -0.5 -1.390625 -0.5q-1.234375 0 -2.015625 0.890625q-0.78125 0.890625 -0.78125 2.8125q0 1.953125 0.75 2.84375q0.75 0.875 1.953125 0.875q0.96875 0 1.609375 -0.59375q0.65625 -0.59375 0.828125 -1.828125zm9.640625 0.4375l1.6875 0.203125q-0.40625 1.484375 -1.484375 2.3125q-1.078125 0.8125 -2.765625 0.8125q-2.125 0 -3.375 -1.296875q-1.234375 -1.3125 -1.234375 -3.671875q0 -2.453125 1.25 -3.796875q1.265625 -1.34375 3.265625 -1.34375q1.9375 0 3.15625 1.328125q1.234375 1.3125 1.234375 3.703125q0 0.15625 0 0.4375l-7.21875 0q0.09375 1.59375 0.90625 2.453125q0.8125 0.84375 2.015625 0.84375q0.90625 0 1.546875 -0.46875q0.640625 -0.484375 1.015625 -1.515625zm-5.390625 -2.65625l5.40625 0q-0.109375 -1.21875 -0.625 -1.828125q-0.78125 -0.953125 -2.03125 -0.953125q-1.125 0 -1.90625 0.765625q-0.765625 0.75 -0.84375 2.015625z" fill-rule="nonzero"/><path fill="#000000" fill-opacity="0.0" d="m301.5643 201.62466l0 124.188995" fill-rule="evenodd"/><path stroke="#424242" stroke-width="1.0" stroke-linejoin="round" stroke-linecap="butt" d="m301.5643 201.62466l0 118.188995" fill-rule="evenodd"/><path fill="#424242" stroke="#424242" stroke-width="1.0" stroke-linecap="butt" d="m299.91257 319.81366l1.6517334 4.538086l1.6517334 -4.538086z" fill-rule="evenodd"/></g></svg>